<mxfile host="Electron" modified="2024-05-21T05:17:29.400Z" agent="Mozilla/5.0 (Macintosh; Intel Mac OS X 10_15_7) AppleWebKit/537.36 (KHTML, like Gecko) draw.io/24.4.0 Chrome/120.0.6099.109 Electron/28.1.0 Safari/537.36" etag="_2RMgqgCr8b34lkvzQ9P" version="24.4.0" type="device">
  <diagram name="Pagina-1" id="PmrE5g-r_rHxkB8YD70U">
    <mxGraphModel dx="1242" dy="907" grid="1" gridSize="10" guides="1" tooltips="1" connect="1" arrows="1" fold="1" page="1" pageScale="1" pageWidth="827" pageHeight="1169" math="0" shadow="0">
      <root>
        <mxCell id="0" />
        <mxCell id="1" parent="0" />
        <mxCell id="Hlxh5UO1HMzbumFTXEiD-1" value="" style="shape=image;verticalLabelPosition=bottom;labelBackgroundColor=default;verticalAlign=top;aspect=fixed;imageAspect=0;image=data:image/png,iVBORw0KGgoAAAANSUhEUgAAAuoAAAEuCAYAAADY9jeZAAAMQGlDQ1BJQ0MgUHJvZmlsZQAASImVVwdYU8kWnluSkEAIEEBASuhNEJESQEoILYD0biMkAUKJMRBU7MiigmtBxQI2dFVEsdPsiJ1FsffFgoKyLhbsypsU0HVf+d5839z57z9n/nPm3Jl77wBAO8EVi3NQDQByRfmSmGB/RlJyCoPUDXBAAxTgAky4vDwxKyoqHMAy2P69vLsBEFl71UGm9c/+/1o0+YI8HgBIFMRp/DxeLsQHAcCreGJJPgBEGW8+NV8sw7ACbQkMEOKFMpyhwFUynKbAe+U2cTFsiFsBUFHjciUZAKhfhjyjgJcBNdT7IHYS8YUiAGgMiH1ycyfzIU6F2AbaiCGW6TPTftDJ+Jtm2pAml5sxhBVzkReVAGGeOIc7/f9Mx/8uuTnSQR9WsKplSkJiZHOGebuVPTlMhtUg7hWlRURCrAXxByFfbg8xSsmUhsQr7FFDXh4b5gzoQuzE5waEQWwIcZAoJyJcyaelC4M4EMMVgk4T5nPiINaDeKEgLzBWabNJMjlG6QutT5ewWUr+HFci9yvz9UCaHc9S6r/OFHCU+ph6YWZcIsQUiC0KhAkREKtD7JiXHRumtBlTmMmOGLSRSGNk8VtAHCMQBfsr9LGCdElQjNK+NDdvcL7YpkwhJ0KJ9+dnxoUo8oO18rjy+OFcsMsCESt+UEeQlxQ+OBe+ICBQMXesWyCKj1XqfBDn+8coxuIUcU6U0h43E+QEy3gziF3yCmKVY/GEfLggFfp4ujg/Kk4RJ16YxQ2NUsSDLwPhgA0CAANIYU0Dk0EWELb3NvTCO0VPEOACCcgAAuCgZAZHJMp7RPAaCwrBnxAJQN7QOH95rwAUQP7rEKu4OoB0eW+BfEQ2eApxLggDOfBeKh8lGvKWAJ5ARvgP71xYeTDeHFhl/f+eH2S/MyzIhCsZ6aBHBm3QkhhIDCCGEIOItrgB7oN74eHw6gerM87EPQbn8d2e8JTQQXhEuE7oJNyeJCyS/BTlWNAJ9YOUuUj7MRe4FdR0xf1xb6gOlXFd3AA44C7QDwv3hZ5dIctWxi3LCuMn7b/N4IenobQjO5FR8jCyH9nm55HqduquQyqyXP+YH0WsaUP5Zg/1/Oyf/UP2+bAN+9kSW4gdwM5iJ7Hz2BGsATCw41gj1oYdleGh1fVEvroGvcXI48mGOsJ/+Bt8srJM5jnVOvU4fVH05Qumyd7RgD1ZPF0izMjMZ7DgF0HA4Ih4jiMYzk7OLgDIvi+K19ebaPl3A9Ft+87N/wMA7+MDAwOHv3OhxwHY5w63f9N3zoYJPx2qAJxr4kklBQoOl10I8C1BgztNHxgDc2AD5+MM3IAX8AOBIBREgjiQDCbC6DPhOpeAqWAmmAdKQBlYBlaBdWAj2AJ2gN1gP2gAR8BJcAZcBJfBdXAXrp4u8AL0gXfgM4IgJISK0BF9xASxROwRZ4SJ+CCBSDgSgyQjqUgGIkKkyExkPlKGlCPrkM1IDbIPaUJOIueRDuQ28hDpQV4jn1AMVUO1USPUCh2JMlEWGobGoRPQDHQKWogWo0vQNWg1ugutR0+iF9HraCf6Au3HAKaK6WKmmAPGxNhYJJaCpWMSbDZWilVg1Vgd1gyf81WsE+vFPuJEnI4zcAe4gkPweJyHT8Fn44vxdfgOvB5vxa/iD/E+/BuBSjAk2BM8CRxCEiGDMJVQQqggbCMcIpyGe6mL8I5IJOoSrYnucC8mE7OIM4iLieuJe4gniB3Ex8R+EomkT7IneZMiSVxSPqmEtJa0i3ScdIXURfqgoqpiouKsEqSSoiJSKVKpUNmpckzlisozlc9kDbIl2ZMcSeaTp5OXkreSm8mXyF3kzxRNijXFmxJHyaLMo6yh1FFOU+5R3qiqqpqpeqhGqwpV56quUd2rek71oepHNS01OzW22ng1qdoSte1qJ9Ruq72hUqlWVD9qCjWfuoRaQz1FfUD9oE5Xd1TnqPPV56hXqterX1F/SSPTLGks2kRaIa2CdoB2idarQdaw0mBrcDVma1RqNGnc1OjXpGuO0ozUzNVcrLlT87xmtxZJy0orUIuvVay1ReuU1mM6Rjens+k8+nz6Vvppepc2Udtam6OdpV2mvVu7XbtPR0vHRSdBZ5pOpc5RnU5dTNdKl6Obo7tUd7/uDd1Pw4yGsYYJhi0aVjfsyrD3esP1/PQEeqV6e/Su633SZ+gH6mfrL9dv0L9vgBvYGUQbTDXYYHDaoHe49nCv4bzhpcP3D79jiBraGcYYzjDcYthm2G9kbBRsJDZaa3TKqNdY19jPOMt4pfEx4x4TuomPidBkpclxk+cMHQaLkcNYw2hl9JkamoaYSk03m7abfjazNos3KzLbY3bfnGLONE83X2neYt5nYWIx1mKmRa3FHUuyJdMy03K15VnL91bWVolWC6warLqt9aw51oXWtdb3bKg2vjZTbKptrtkSbZm22bbrbS/boXaudpl2lXaX7FF7N3uh/Xr7jhGEER4jRCOqR9x0UHNgORQ41Do8dNR1DHcscmxwfDnSYmTKyOUjz4785uTqlOO01enuKK1RoaOKRjWPeu1s58xzrnS+Npo6Omj0nNGNo1+52LsIXDa43HKlu451XeDa4vrVzd1N4lbn1uNu4Z7qXuV+k6nNjGIuZp7zIHj4e8zxOOLx0dPNM99zv+dfXg5e2V47vbrHWI8RjNk65rG3mTfXe7N3pw/DJ9Vnk0+nr6kv17fa95GfuR/fb5vfM5YtK4u1i/XS38lf4n/I/z3bkz2LfSIACwgOKA1oD9QKjA9cF/ggyCwoI6g2qC/YNXhG8IkQQkhYyPKQmxwjDo9Tw+kLdQ+dFdoaphYWG7Yu7FG4XbgkvHksOjZ07Iqx9yIsI0QRDZEgkhO5IvJ+lHXUlKjD0cToqOjK6Kcxo2JmxpyNpcdOit0Z+y7OP25p3N14m3hpfEsCLWF8Qk3C+8SAxPLEzqSRSbOSLiYbJAuTG1NIKQkp21L6xwWOWzWua7zr+JLxNyZYT5g24fxEg4k5E49Ook3iTjqQSkhNTN2Z+oUbya3m9qdx0qrS+nhs3mreC74ffyW/R+AtKBc8S/dOL0/vzvDOWJHRk+mbWZHZK2QL1wlfZYVkbcx6nx2ZvT17ICcxZ0+uSm5qbpNIS5Qtap1sPHna5A6xvbhE3DnFc8qqKX2SMMm2PCRvQl5jvjb8kW+T2kh/kT4s8CmoLPgwNWHqgWma00TT2qbbTV80/VlhUOFvM/AZvBktM01nzpv5cBZr1ubZyOy02S1zzOcUz+maGzx3xzzKvOx5vxc5FZUXvZ2fOL+52Kh4bvHjX4J/qS1RL5GU3FzgtWDjQnyhcGH7otGL1i76VsovvVDmVFZR9mUxb/GFX0f9uubXgSXpS9qXui3dsIy4TLTsxnLf5TvKNcsLyx+vGLuifiVjZenKt6smrTpf4VKxcTVltXR155rwNY1rLdYuW/tlXea665X+lXuqDKsWVb1fz19/ZYPfhrqNRhvLNn7aJNx0a3Pw5vpqq+qKLcQtBVuebk3YevY35m812wy2lW37ul20vXNHzI7WGveamp2GO5fWorXS2p5d43dd3h2wu7HOoW7zHt09ZXvBXune5/tS993YH7a/5QDzQN1By4NVh+iHSuuR+un1fQ2ZDZ2NyY0dTaFNLc1ezYcOOx7efsT0SOVRnaNLj1GOFR8bOF54vP+E+ETvyYyTj1smtdw9lXTqWmt0a/vpsNPnzgSdOXWWdfb4Oe9zR857nm+6wLzQcNHtYn2ba9uh311/P9Tu1l5/yf1S42WPy80dYzqOXfG9cvJqwNUz1zjXLl6PuN5xI/7GrZvjb3be4t/qvp1z+9Wdgjuf7869R7hXel/jfsUDwwfVf9j+safTrfPow4CHbY9iH919zHv84kneky9dxU+pTyuemTyr6XbuPtIT1HP5+bjnXS/ELz73lvyp+WfVS5uXB//y+6utL6mv65Xk1cDrxW/032x/6/K2pT+q/8G73Hef35d+0P+w4yPz49lPiZ+efZ76hfRlzVfbr83fwr7dG8gdGBBzJVz5rwAGK5qeDsDr7QBQkwGgw/MZZZzi/CcviOLMKkfgP2HFGVFe3ACog//v0b3w7+YmAHu3wuMX1KeNByCKCkCcB0BHjx6qg2c1+blSVojwHLAp6mtabhr4N0Vx5vwh7p9bIFN1AT+3/wJix3x8zj7enwAAAIplWElmTU0AKgAAAAgABAEaAAUAAAABAAAAPgEbAAUAAAABAAAARgEoAAMAAAABAAIAAIdpAAQAAAABAAAATgAAAAAAAACQAAAAAQAAAJAAAAABAAOShgAHAAAAEgAAAHigAgAEAAAAAQAAAuqgAwAEAAAAAQAAAS4AAAAAQVNDSUkAAABTY3JlZW5zaG90pWgQjgAAAAlwSFlzAAAWJQAAFiUBSVIk8AAAAdZpVFh0WE1MOmNvbS5hZG9iZS54bXAAAAAAADx4OnhtcG1ldGEgeG1sbnM6eD0iYWRvYmU6bnM6bWV0YS8iIHg6eG1wdGs9IlhNUCBDb3JlIDYuMC4wIj4KICAgPHJkZjpSREYgeG1sbnM6cmRmPSJodHRwOi8vd3d3LnczLm9yZy8xOTk5LzAyLzIyLXJkZi1zeW50YXgtbnMjIj4KICAgICAgPHJkZjpEZXNjcmlwdGlvbiByZGY6YWJvdXQ9IiIKICAgICAgICAgICAgeG1sbnM6ZXhpZj0iaHR0cDovL25zLmFkb2JlLmNvbS9leGlmLzEuMC8iPgogICAgICAgICA8ZXhpZjpQaXhlbFlEaW1lbnNpb24+MzAyPC9leGlmOlBpeGVsWURpbWVuc2lvbj4KICAgICAgICAgPGV4aWY6UGl4ZWxYRGltZW5zaW9uPjc0NjwvZXhpZjpQaXhlbFhEaW1lbnNpb24+CiAgICAgICAgIDxleGlmOlVzZXJDb21tZW50PlNjcmVlbnNob3Q8L2V4aWY6VXNlckNvbW1lbnQ+CiAgICAgIDwvcmRmOkRlc2NyaXB0aW9uPgogICA8L3JkZjpSREY+CjwveDp4bXBtZXRhPgquzu0xAAAAHGlET1QAAAACAAAAAAAAAJcAAAAoAAAAlwAAAJcAAFkbmoxizQAAQABJREFUeAHsXQWYFEcTrZCEECFYEoKEEDy4ux3O4a7BHQIEggQJ7haCBnd3C3bI4e6uAYIEDQkS/sjfr4+e652d3du92zt2l6rvu5tpmZ6eN7Mzr6urqt9ImjTpf8TCCDACjAAjwAgwAowAI8AIMAJehcAbTNS96n5wZxgBRoARYAQYAUaAEWAEGAGJABN1fhAYAUaAEWAEGAFGgBFgBBgBL0SAiboX3hTuEiPACDACjAAjwAgwAowAI8BEnZ8BRoARYAQYAUaAEWAEGAFGwAsRYKLuhTeFu8QIMAKMACPACDACjAAjwAgwUedngBFgBBgBRoARYAQYAUaAEfBCBJioe+FN4S4xAowAI8AIMAKMACPACDACTNT5GWAEGAFGgBFgBBgBRoARYAS8EAEm6l54U7hLjAAjwAgwAowAI8AIMAKMABN1fgYYAUaAEWAEGAFGgBFgBBgBL0SAiboX3hTuEiPACDACjIDvIRBQvDj98NMku47/73//o+ypU9nlc4b3IrDv1GmK8e67dh3s2elbWrV0qV0+ZzACkYWATxL1d8WP559//qEXL15EFi7cLiPgdwi89957FCdePPr1+nW/uza+IEbAGxAoWbYsDf1xjF1X/v33X8qSIrldPmd4LwIHz52nt99+266D/bp3oyXz59vlcwYjEFkI+ARRjx8/PmXMmJESJEhA0aNHpzfeeEPigZffs2fP6MiRI3TmzBmXMXrrrbcoc+bMlCRJEuOY9evX09OnT420v+/Ua9KUGjZv7vJlfte+He3dtYuSfP45TZw12+a4xrVq0q2bN23yVKJKzZrUuGUrmXxw/z7VrVxJ7s9cvJiSJP1CVXN7i3YU4dy0ew+9ZfFCddToknnzaNyokUbxxJmzKHXatEZa7eD5uvfbb3Tt6lXaviWI1ixfroost5PmzKGUqdNYllll7tm5g7p9841VkcwrWrIU9ejf3yg/tH8/fds6BEsjM4ydZm3aULHSgfSZuG8g6kr++usvOrh3L40dMYJOnzyhsuX2p9lzKFUa16/j/Nmz1PyrujZteCLh6L7+999/hGfpysWLtCs4mFYsXuSJ03EbrxECKVKloslz57l8xXjGRg8dGmZ9naj//ugRzZ46VR7z5x+Paf6sWXbHt/6mA1WtXdsuHxn4jd745Re6cO4czZ42lW7euGFZjzMjB4FqdepQ7NhxZOO16teneB99JPeZqEcO3tyqYwS8nqgHBgZSokSJHF/By5InT57QsmXL6Pnz5w7rguRnz56dvvzyS4oWLZpNvSVLltDDhw9t8vw50WfIEKpYrbrLl9irSxdJiLLnykVT5y+wOW7X9u3UqmEDmzyV6NGvP+GFB/n7778pW6qUcn/n0WMU88MP5X54/tWuUJ5OnQghmMcuX3GriS0bNtA3LVsYxwTt3UcfffKJkXa0c//ePerxbUfaLcihlWzZf8B4mVuVm/PwAa5aupQ520hPnTefsufObaQxi4TpcwwgwpJ33nmHpi9cROnEANeZgAzk/NKWlAft208fffyxs8Nsyu7dvUtFc+W0yfNEwtX7CtLevWMHh/fFE33hNvwLgdz58hEGpK7Kjq1bqE3jxmFW14n6ZTGQrFSiuNNjRk2YSEVKlnRaB4UYnG76+Wfq0q4t/SveAyxRi8D8VasobfoM8qRM1KMWez4bkdcT9cqVK1M8MV2vBLZ+jx8/lmQlTpw4BO24kgcPHtBSC9sxkPKCBQtSihQpDG28OkZtXzei3rFbN6rbKPTDg1kKNVMBTMxksEvbr2njunVkRdTxESmcPRs9shjoOCLqG3btpk/ETIlZzAMocz9U/SqC4F6+cEEmdUKHvuDPmaxauoQw8FCiE3UciwEFBM+Wjgny0J+yAYUNbT7ylJiJuqO+q/rHDh+mBtWrqaTd9sDZc3IGSS/o0LIlBW1Yr2fZ7ceJG5dWbg6iWLFjG2X43UAj9/j336V2HWW4NleIeljXcV1o/coXLWKcy1M7+n3FIEX1w9F9CSxYwOHMjqf6xO34BwKZsmalGYsW21yM/u4xv0d+Xr3K6eyXaiiiRB2/Uwh+m/q3TbVvVjKofN5GLgJM1CMXX27dOQI+QdRByC8IUnbgwAFp6qIuCS/WgIAASpYsmcqiYKHtPCc0lbrApr1uXdup+UdiWjK2RmReN6Ku44P9DMIUaM6yUNOOTMmszVKsiDqO37h2LXX6ug12bcQRUbeppCW+6fodNWjWTOaA+BfKllUrtd7VCV2NcmXp7KlT1hUd5OpEfdHcOTSgZ0+jZqLPPqM+g4dQjjx5jDyY3AQWKmik1Y5O1OdOn05D+/VVRW5vHeG8Z8cOalG/ntP24MwGpzYlmLbXBybIT5AwIY0YP4GSp0xJudKlVVXlVteoY8p9uGZ+Y1MxkhPO7msy0e9+Q4dR+kyZjF78cuVKpAwYjBPwjl8jcPjCRXrzzTflNXYWiokNa9a4fb0RIeoXz5+nKqVCteuYFavxVT1q26mTja00fv94D7BEHQJM1KMOaz6TPQJeT9Rhl35PmBwoTYP9JZAk4SDjkMuXL1NQUJBNNZ2o3xfT5Lt376bbt29TkyZNDI0pE/WIEXVoO/NlzGBn5+/rRF09SDD3AXmGQNuWNWUKQ8Or6niSqA8bM5ZKlCkjm4apTV4xIwR5JvwocqdPJ/et/sUWg9qtBw4apl1wesJUrSOB9v2hmInSxReIuurvwtVrKE26EDxwXzInDx20qzq8ZQRcQcDbiLrqs1mJggEEBhIsUYcAE/Wow5rPZI+A1xN1+y7b5xQpUoSSJ08uC34XU/uLFtk6l8Fzu7jQMO4Xzngg/UqYqCskwq9Rh922crJZtnAh9fmua2ijYs9fiHrWHDmkzbe6uDqVKtLJY8dUUm49SdR3HDlKH8aKJdutX60aTZg503AGrVW+vJ0DqOqITvAxeMqRJrVhyqPqhLX1JaKeRfic6CYMjmZUMIDpLWZGQOo/Fv4IMCuA2c+tX3+lBbNmWjr6mXFatGYtvRMjBj169JDqV60qZ6HwfCcXjol4x2Cg8Ocff0in41GDB8n2zW3UbdSI6jdpSrHFAAk+MxCYWuG4w2LGcNaUyXTk4EHzYUYa/e43fDhlyZZd+lXgvLiOO0LxsD1os9PZj+Hjxgtn59SynzC5yilmieqI/qRO8yW9KxyNEUULzotfN21CN65dM84ZmTujJ02WDurqHNfE+ds1a6qSUbr1VqIOEFYFbaHPvwiZ5TRr3hVImGHu1KOnHNR/KhRcCC2IZ+uucIiHBh4DdmU+po4xb/F8Vqsd4lM0dcJ4+Sx/07Wr9GeCTxFMcqA0uyoUYgO/7ymfWXMbeQoUoM49v6eEwrcMvxccg/Mi8MN5EfRh2cIFYYY3LBBQhNp06ECY0fwgZkx5CjjnYtasf4/uBAd2K8ksfhfwv4IEiwAA40aNou59+1EO4evzqZhFhKAdfKtGDw2pJzPD+MdEPQyAuDhSEfALog4SnjRpUgnUnTt3aJVw/HBFmKiHomTW2rhq+gIzke79+smG8FHII7S9ethMfyHqGIyAiCvp1uEbWrtihUrKraeIOj5O67YHyzbxUYQDKSLK5MqbT+atFI7P33fuZHNuldCddA/s2UNN6lhHlFD1rba+RNRhHrD/TOhHu7cgFcsXLbS5rGKlStPg0aNtzAdsKogEsIJDtP7smusoUxzYy8NEYdmGjcbMhblux1ataPP6n41sEOw127ZLkyMj02IHUYaK5g6ZuTEXI1LJtAULbXwPzHVAsBERyTxLgnrbDx0mDFggYwTZ//rbb+W++R+ur5Zw1j53+rS5yOPpPSdPGQNQNI6gAHkzpPf4eVxp0JuJuv77tzIJBInHs+HMCRzPVr1qVS39axQ+GMwVL11aJmEGCBM5kGYruSu+tcXy5LYp0hUFNgWmhKPvC6r17D/AYSQclGNAPHLQIDmoRVqXStVriAH5YJl1TgwK3n//fUqsRXfT6+7cto1aN2qoZzncZ6LuEBouiAIE/IKo1xFRRVToucPCQe/QoUMuQcdEPRSm8BL1aoGladTEn4yX4czJk8VLdKDRsL8QdYRKHDlhgnFdlUqWMJxZVaaniDq0UXUahnxAEDoRGvQKQoPbV9hkQxDlJCBHdnVam61ONvp2+46WLlhgU+5KwpeIOpwCZy1ZalzWNy2a05aNG400SPqI8eONNDR7Vy9dkhiC3HysOTRvFyZzbYU22ZEooo424JSrSC8GU9DSgRRAMw0xE/Uho3+kUuXKGU3fvnWLLgpfGmgbMTDDH7TjjiLoQFu658RJmwVY0AbIVwKhuVSzWjgBZglKFchvnEvt6ERd5f0hHPPhcwGCp0c+gqNzvapVVLVI2zJRD4364khTDvDhHJ70pS/Wb2L2pHjeUJ8ZPId49yj7etTHPYXzeHyhWUdoVjxnEGfvDpTrRB1t4LmEqNkiDOIw04fn0UzUzb81DLpOHjtKT588pYSJE1Ni0db7H3wg23NE1Fu0a0ct27WXdfAPs0UIj4v+4/p1B1tE4UE0Hl10oq7y8Xu9Ia7lLxERLpkIKKHjBCd4aOnDEibqYSHE5ZGJgM8TddiwlxWLTChBiEbYobsiTNRDUYoIUcfLXK3GhxdrbuGciJcjJKqJOj4o+HMmILl6hBpnzqRoBx+ljSJKjSJ1SsttPodO1FHmrB/4yOkfW72t9Tt2SvKFPMRunjZxAkFzvO/0GeODC60rSJoumOrGanpKoE2Hpthd0Yk6jlX30lE7Q/v2ccl0xNHxjvIVMUa5I5OW2UuXUcYsWYwmYOqja8X1GQYQl68E+dRxq1WvHnXt3cc43tF5UEHvD9LPxVQ+zDSwvoASxJ8fIha8gZkBTFmU7BYkG0QeMmH0DzRRaPh1wTP2lSAeKVKlJqx8aBadwOC5QphQPa5/6w4dCTHzlViRGDNRXzhntjBf+F4dQl179SbEi4bgHFlTpYz0UIBM1MMm6jDXWrBqtfHbx0AUA1Ilk+fOFWZMeWUS799WDerTwX37VLE00YK2XZla4dnDM2glOlFX5cFbtlC75s2MZwHP6tffdqIMwpFbn7FDOFiYCEJgFgjzQLMUKlqUsIYH1t4wC9rVB6Mg0FAE4ZogGIxiFksNkK0GpGaijsFCrfLlDDL+yaef0mphRqRWHEUks05tWpu7Ypdmom4HCWdEIQI+TdQxuq5VqxbFEHZwkCvih71582aX4WOiHgpVRIg67AV1sotFdCaPGysbj2qiHnpFjvfMJFfvOz5wWBAJEideXLmAUWmhCVWaUuQr8ox9XcxEXS8z70MDWzBrKMFU5dA47T4eugARot6oQcX6nbsM0wngC5x1gX0mFpJSUkJo3WC77K6YiXpYx8OMYsr4cWFVc7tcJ8ZmAg0n2KFjxhgEBY2bNY06eQWpLiJivT/580+7fuixrJ2ZC+n9weDFPOCza1jLOHrpskG0EMrUyjRFq263qxN9xNO2Wvhq8bqfjYWqoIUsVyTAph2dqJuxQkUQJZgRQbMPsZo1kgUe/MdE3TlRx0xad+EHgYG6Ej1EK0g8HKqVNKxR3WaAqPIDy1egQT+EkHP8BvIKx38rMRP1datW0nftQzXcVseoPF3BEJ53Qv2mTanDd91kcxgo5suU0e73ioXp4CuiBIRfH5SYibp5hg3H4Rw4FwTmMdXLBMp9Z/+YqDtDh8siGwGfJur6YkjQcs4RdrwqBrYrwDFRD0UpokS9fJUq1G/YcNmgbmca1UQdU/l4FhwJPgCY7oTznhKdqKs8qy3ahaYUNuJWohN1aIEeCzLuSC6JxVCsVvOEtgkx7iFmW9RegwZT5Ro1ZJkVEcMCVsqRCpUcTS/LBpz804k6tNM6VlaHDe7TO1yh7Kza0vN0Ygw8Me0OgWZQnwJHHu5r7QoVbJxsF61dR6nF4mYQDL76CSc0K4EN61phPw6Bc3SRnCFaQXNdvT/O/ATMxyGtx8SHDT1s6V0VEOgjFy8Z1csFFCY4XZpFDw0IvMwLWelEfdzIETRpbMhgWm/n5+Ad0kwBedA0QuMYmTJWrNyZOMnnxikQk//rJo2NdFTu6GZjryI8I55hOFxCoglTD+WIqWNw9PAh6cis8tp17kKNWrSQSat3gqqHLQZhivBj4Tmrb6VO1PF7yy/IsqsrdoNAqxWe4StRpnAh/fRh7sOxuHCxYrLeiaNHjVWszQfq72s8w3iWlehEHYNzc+hZ1EMErQkzZspDMLvmyCdEtYktE3UdDd6PagR8lqjnEREL0qdPb+C1RoSsuiVsNt0RJuqhaEWUqKOl4MNHDEe3Qb160YLZs6Lc9MWseQ29Qsd7+ovfcS2S9suwY3YkOlEPbxx1/WNnXtwEMcPnLl8hT4+POoiYbuaRr1AhGj99htG9AlkyS1tqI8PFHZ2oe0scdWddh4awj7DHN8e91omps+P1MmjKs6QIiSCl52NfJ+r6yrjmelbp5WLKHrHflYAg7BJhN7F4FSJy6PdR1VFbHIfjISBXanVfVa62ZtMn80BNxwO2+FbPMkwsvnz5XlW/YdW+v29fNVEPC999u3eJd1BTaXKl6uL3jt+9u2LWRKvjdaLuysqq6jhsdd8apBFKdr8wvdu6aZP422jMDKLMSvSB9XwR5QoKACvRHWvNpis6UYcPR8l8ee2aSCJs9ldv3Sbz4WuC92RYwkQ9LIS4PDIR8EminkkQlpw5cxq4bBdL2J8/f95Iu7rDRD0UKU8QdThA4mUNUdrgqNaoR5So4+ME4hRNLHwCe0tE2tCdj5xp2iJK1KE5PXT+ghFJpL2wC8VHThddM9u/Zw9aLOxTlZgj01iFkFR1nW29kahDQ6w0gP8IsgrTkVs3b4p7FUwzJk2yvBxooYGpu2ImuOp4naibbeFVHUdbkO0lwjRFf5b0uiAVCM2IAZ5ZXDVbwHG6iQ0W5YJDoBKdqDsya8GiZ3gXQIb170dzpk1Th/v99lUTdQy+de31M2FfDdM1zDJM/HE0XRFO0GZZvWUrJUma1JwdZhrmLDBrMYtO1HeJ7yoiIbkqeGdC6RFXW0lcPxaznYiE1Ld7d8PeXS/X35/Onj3M3GIGF3Lq+HGqXbGC0YxO1BG1qHrZMkaZ2kEkG5gRQpyZAan62DJR19Hg/ahGwOeIeipBnAppGgSsVnpUTJOFR5ioh6LmCaKO1nSbU3wMQHariag8EGfaQFlB/PO2lUlB9NYI7YuKfgDzFyzsBOJoFv1DEx6NeonAQBo2NtTW28qER9kP49xW08M6UXP0MTb325z2RqIengGYjsWKJYvpVxdig+O+InKRlSii7kzrbnWcygNB6D9iJCH2uyPCDiKDiDG6VK9T1wiBqgbAerm+r5NNc7x9nahXLF7MkvgxUX9TwulsQK7jbd7XzY9c0Ujr/hHOor6Yz6PSm3bvIThIQrAiM2ZoXBFEg4KZl1l0ou7MXMx8nErDJA0megjxqPv1qHJsMZsER3qzk7q+doSziFW68ueyWLEcg04lOlEHHnhvmIWJuhkRTns7Aj5F1JMKzQFipis5JX6IWGU0vMJEPRQ5TxF1PToFHNYwve7LRB0IIcqAvtonSF+vzp1DwXu5F1Gi/tPsOZQ7Xz67dh1lWA189p48ZXwg3bWjVufxF6KuY+EJe2tF1GG7i5VpIyIIK1msVCkqVLSYsZCNag9hEREeUYm+2BZMZKDNtxKzLbtZ689E3Qq10Dx9kOMrRB2hSfEsQcxmIKFX5vqeTtQRRx3rZIRXYGJSTBD2IiVKUrqMGW1mt6xM6vTZAStnedWPHydPEb+bojKJVZtbiig3SpioKyR4608I+AxRTyRiBZcWP3oVD/aSmAbcIsJGRUSYqIei5ymijulPhAhUocAQpgu21RArYhnag5A9b9Ooq/7pWhxogmDXaHayjChRB24qbBg0p7DxtBLEzVaCqWlMUSvRbdwxjY4FqNwVfyHqcBBVi52EJwqFGTdPEnW9bfw+Zi5eYjjIzpsxg4b07WNU0SMBwTwCC2ApMyCjktiBmdbS9RtkltVgwhuJepmKFSn+S40wOn775i1Lkwx5UZH8zxeJOhb3ATmFeCL2vSeJun67oOyA6ZcKcWs12zBl7jzKIXzPII4iG6FMj240f9YsGty7F7KlMFFXSPDWnxDwCaL+iVjyu7xY9EWR9OvC7nL9etem+JzdLCbqoeh4iqijRbNTkTqLLxN1DDxg1qOijViFLYsIUdcdRYGXHpZR4ae2G0RMdywRDjEv0mMO0RgezaC/EHVEFFGrKroa3UFhbLWNLKKOc2EdgoCXs4XbRIhZxGfXRbe3dzToGCrit8P0AmIV/tMbibpuKod+6xGjkI5K8UWirkd6ggLBnZChVthGFlHHuTAoGzhylDyt1cJL+oqkUFLktlAyYGFDhCpVXMDsp8NE3equcp6vI+D1RD2OGIlXrlzZmDa7IxaKWbVqlUdwZ6IeCqMniTpCgOFlqkitOosvE3VcA1YGRVxjiJVWPSJEfYCwXS5bqZJsOyw7ZD1MoxWxWSUW9MCqm6qfiBRhXsEPZXUbNaIqNWtRpRKh5mTI9xeiDr8CaNXVR93ZQi+Iy96+SxdavmgxHT10EDDYSUSIOkJuwunVyi4YJ9IHX2YtIcr1RW3glIeVR/UZHZgZLN+02fjNWbXBRB1IOhZfJOq4Gj3aFvxW6lWraumsifdxw+YtRAjIpw6dhCNC1Bs0ayYX/4JtuJUgjjscoyFwjIWfhC5YvXTd9mDj96qvx6HqwYcHvjwQ+PDkzZDeJmISE3WFFG/9CQGvJ+p1hCMiRtFKsOqo2QlFlWGLOLQbNoRM/+r5sWPHpoIifqou8bXlwx+JmNe6g+CRI0cImnt/lapioaj6TZsZlweM9SXEEZNXl+87d6IjBw9S9ly5aOr80GXpsXIcFjwySx+xombFqtVssqOCqMMu/rlYKtqZnBXRAPTV6PTwjM7sMj+IGZPg8KQiiaxdsYK6dfjGOFVEiLpOosxhGY0TvNxJlyEDzVsZOlg1R/DA9PHkOXONDx7MJWCCdGDvXrr72x3KnDUbZRP3EcvG45k3x9vWiToGAvfv3jV3wSb9t/hg6g5dNoURSChijCbC40yK48zPIQjCisWLpJkApuMxQM1XsJCM/wxCP7RfX8vIK2hL9cfKrATlzkQdiwVWtmzcQMfF+wVEA6SjYJGixgwJ2jBHa0GemcSArGPF2pPHjktzgYbNmxsLFVkRGLShP2Pe4kz6qjTqXyRPTrB11kWPngKNrz4QWr5okcRbr2+1H9XOpOhDgcIBNFaLzoNIJvNmzpDva/g0ZMiUmXLkzk25hP8LnJidLeoVEaKuni+surx+7Rrp7I6oQ/kLF6aAYsUJizMpsSLhKNMHpEjjXbh6+TKxqOG7VOOruoQZQyVWg1Em6god3voTAl5P1Bs0aGB8gFwBHiR+qpjyNstnQrtWSjhvuSr79++nY4Lc+KtgYRxMm7oqvYS2EQTHVaJuJrU4T1QQdVeux7yojatEHW3rJgp41vJnzmSsnhdeoo6oDYjeoMQqLKMqU1s9TOOS+fPlQkyqDFvcpwkzZxm+AnqZvh8WUdfrOtt3FNLQ2TFhlSlyi3rhJerQIs4QWnIQclcksol6WH1w5gDsyKRMbxODssG9e8s1DPR87Csihf3XnajDaRvO264KZqTaNG4cZvVXQdTRqS7f96Ja9esbg3NnHY1sou7s3CgDeS8bUNhS4QZ/BfhZxPzwQ6fNIDRr+SIBNtp0HMBE3SlsXOijCHg9Ua8vXj7KMdEVjKHtmqZpF9QxcEbFSqauyj6xlPxxEaPVX0W3B3TlGrt37EBrli+XEQYQaUCJWZur8rEdMX68iGxR2siCpg+OcM6kbadO1LhlSHg6M6F2dJxO6BzV0fPvCQ1xUbGcvBIbswMnC22gPkj1RmEjrswp9IU5dMKPEH8jBw1Up3C6bdKqNX397beyDsg/FrRxNmuEinq0B3z4oIU1C8w5ponZj6RCe6hmAfQ60JYvnT+PRgy07efmPXsNpy+9vrP9yCbqzp4zZ/1SZfiAdxWLcClnXZWvtsACMdmBxc0bN1S2zVaFe3RlwGlzoEgg7GEqsUqqWhnSXA7H38ljxwit7URzkU26SIkSNHj0j5btYPGWFvW+olMnTtgcoxKIXKRiXGPVSKweaRb9uYqKBY92Hz9BcJZV4mpca1U/vFs9ko4rbVj5DVgd5y5RHzZmLJUoExLr29Xl7K3Oi7y06TPQGKGkwkyZleD9i5m18aNGiYWIdltVId3PwezUbHmAltlzwEAqKa7FEcnGt/lnYbaKFYKxaqgjwfcegyjcI7NgILpu5UqbmUy9DswHYUYIMcdYV/V0xQgveKRQ4a03I+D1RN2bweO+MQK+ggAW3CkYECDNm64K84/Twofg9ElrQucr1xSefsLcJacwDYKG/emTp3T50kX5QbcireFpP6xjcB8yiCgviZN8Tu+//z5duXxJxr+GbbE7AlOYvAUKULIUKQUxP04IU4dFoFheLQI6Udd74oqSQq8fkX0MBrOKBQGzZs9B0cX+1cuX6fyZ0w4HcBE5l9WxWHgtuzC1SfJ5UoonBg0Y+OL8R0XIUWcE3dwWZsMwM4i2XggTvX0iFDN+J2EpMczthDeth3fV2+jXvRthFpOFEYgqBJioRxXSfB5GgBFgBBgBv0bAEVEHucySIrlfX7u/XdzBc+ctzW6ZqPvbnfb+62Gi7v33iHvICDACjAAj4AMIQJtctXZtu57CMRWrFbP4DgI1v6pHseLEtuvwCuFYfEcELWBhBKIKASbqUYU0n4cRYAQYAUaAEWAEGAFGgBFwAwEm6m6AxVUZAUaAEWAEGAFGgBFgBBiBqEKAiXpUIc3nYQQYAUaAEWAEGAFGgBFgBNxAgIm6G2BxVUaAEWAEGAFGgBFgBBgBRiCqEGCiHlVI83kYAUaAEWAEGAFGgBFgBBgBNxBgou4GWFyVEWAEGAFGgBFgBBgBRoARiCoEmKhHFdJ8HkaAEWAEGAFGgBFgBBgBRsANBJiouwEWV2UEGAFGgBFgBBgBRoARYASiCgEm6lGFNJ+HEWAEGAFGgBFgBBgBRoARcAMBJupugMVVGQFGgBFgBBgBRoARYAQYgahCgIl6VCHN52EEGAFGgBFgBBgBRoARYATcQICJuhtgcVVGgBFgBBgBRoARYAQYAUYgqhBgoh5VSPN5GAFGgBFgBBgBRoARYAQYATcQYKLuBlhclRFgBBgBRoARYAQYAUaAEYgqBJioRxXSfB5GgBFgBBgBRoARYAQYAUbADQSYqLsBFldlBBgBRoARYAQYAUaAEWAEogoBJupRhTSfhxFgBBgBRoARYAQYAUaAEXADAZ8k6u+++y79888/9OLFCzcu1baqJ9qwbZFTQCCGuDcfxIxJ9377jQFhBBgBRoARYAQYAUaAEYgAAj5B1OPHj08ZM2akBAkSUPTo0emNN96Ql/zvv//Ss2fP6MiRI3TmzBmnMHiiDacn8LHCVUFbKOaHH1r2+vdHj+ja1au0Z0cwzZ81y7KOnpkiVSrqOXAgJU+R0mjzf//7H924do0Wz5tLc6dP16vL/S+SJ6dpCxYa+f26d6MtGzcaafNO87ZtqeZX9WT236LtkgXy079isMbCCDACjAAjwAgwAoyAvyLg9UQ9MDCQEiVKFCb+T548oWXLltHz58/t6nqiDbtGfTzj8IWL9Oabb4Z5FcC1R8cODkl0luzZacq8+fTWW285bGvR3Dk0oGdPu/Kfg3dQwsSJZf4fjx9T/syZ7OogI07cuLRl/wGKFi2aLA/esoW+btLYsi5nMgKMACPACDACjAAj4C8IeD1Rr1y5MsWLF8/AG5rax4LUQZseJ04cG4L44MEDWrp0qVFX7XiiDdWWv2x1og4sYUoEARk2E3iUVSpRnH65csXm8lOlSUML16w1CPR///1Ht2/dIpBuaMzffvttoz4084N79zLS2MHxi9auM2ZIZkyaRKMGD7Kpg8T0hYsoa44cMv+vv/6iglmz0HMxk8LCCDACjAAjwAgwAoyAPyPgE0QdhPzChQt04MABaeqibghIZUBAACVLlkxlUXBwMJ07d85IYwdEPaJt2DToBwmdqHdq05o2rltnXBW0441btaKW7dobJPqcMC2qXibQqIOd8dNnUL5ChWQeSHqD6tXp6KGDMh1NaOs37NhJn3z6qUxjgJU9dSq5r/8b9MMPFFi+gszCgKBIzhz06OFDo0rOPHlp8ty5Rvq79u1p3aqVRpp3GAFGgBFgBBgBRoAR8FcEvJ6owy793r17BKLnSOrWrUtwDoVcvnyZgoKCbKp6og2bBv0g4Yyoq8vr2rsP1aoXYhf+7OlTyp0+nSqSWvQDZ88ZMxqTxoyhcaNGGuXYiS0GWNsOHjLI/vedO9HKJUts6mBQsPPoMXr3vfdk/r7du6iZuJ9Kth44SHFfzqicOn6calcMIfWqnLeMACPACDACjAAjwAj4KwJeT9RdAb5IkSKUXJhaQH7//XdatGiRK4fZ1PFEGzYNennCFaJetGQpGjlhgnElmZJ9YexXr1OXuvfrZ6QLZctqowlXBWu3bafESZLI5MXz56lKqZKqyNiWLleeBo8ebaTrVq5EJ44epRbt2kmtPgqgbS+aKyc9FOZNLIwAI8AIMAKMACPACLwOCPgFUS9evDglTZpU3q87d+7QqlWr3L53nmjD7ZO+wgNcIeq9Bg2myjVqyF6aTVeG/jiGSpYtK8tgqgKibiUg8yD1ELNWXq+/SNi6p06bVmbBzr1aYGmCNl05qY4eOpSmTQwdNOjH8j4jwAgwAowAI8AIMAL+iIBfEPU6derQey9NJw4fPkyHDh1y+155og23T/oKD3BG1IFl+65dJcFWoTB3bttGrRs1NHo8df4Cyp4rl0yfPXWKapQLIe1GhZc75atUoX7DhssUnFazpAiZ+TDXiy9s2dfv3GU4pj4WMyMfxoolq/16/ToFFipoPoTTjAAjwAgwAowAI8AI+DUCPk/UYX9e9qVmF3cKIRrv37/v1k3zRBtundALKutEXY/6gogvKgyi6ubJY8eoaZ3a9FTYqStZsWmzjOyC9MG9e6lx7VqqyGYLZ1M4nSoBUcf5rOTbHj3oq0a2YRfhpFpZmMtcFs7ELIwAI8AIMAKMACPACLxOCPg0UYdZRK1atShGjBjynl0R4QM3b97s1v3zRBtundBLKutE3VmXsPBRi/r1CFptXRDXPN5HH8ksLFT0TYvmerGxnyZdOlq4eo2Rhmbc3JZRKHaCDx+hWLFjG1lL5s2jfj26G2neYQQYAUaAEWAEGAFG4HVBwKeJur6QEWyo58yZQ3///bdb984Tbbh1Qi+prBP1J3/+SU/FwkaQt8XKr+9/8IFNDHRg2r5ZM9qxbavR+z0nTxnmRojkgoguVpLos89o3fZgo6hOpYoEDb0j2X7osIwWo8qnTZxIo4cOUUneMgKMACPACDACjAAj8Nog4LNEPU+ePJQ+fXrjRq1Zs4ZuCSdEd8QTbbhzPm+qqxN1cxx19DNT1qw0fOw4Iw76ixcvKFe6tPTvy4WRdEKNGOxow0qSpUxJyzdsNIoQ9QXRX6ykY7duVK9JU5simMkgtjpHe7GBhROMACPACDACjAAj8Bog4JNEPVOmTJQzZ07j9mzfvp3OOyB/RiXTjifaMDXpU8mwiDouJk7cuAQTF2WzPm7kCJo0dqy8Tj3s4t5du6j5V6Gxz3UgcogB1ZS584ysnF+mIawuahZo3tds3WacC+EY1Qqpx4SDcL2qVcyHcJoRYAQYAUaAEWAEGAG/RsDniHqqVKmo0MvVMHFnsFrpURFz2x3xRBvunM8b67pC1NFv2JfDzhyiL0Y0Z9lyypA5s8yHKQtMWqxEj5EOx9DMyUNXkdXrL9+4iZKlSCGzEO6xYc0atGz9BmOxpDaNGtmY3ujH8j4jwAgwAowAI8AIMAL+iIBPEXXESke8cyWnRFjA3bt3q6RLW0+04dKJvLySq0R91MSfqEiJEvJqropVXysUKyr3R0+aTIWLFZP7t27epFL581lesb5oETTp0Kibxbx4UhMRYebAnj2knwPhGhGr3VHEGHObnGYEGAFGgBFgBBgBRsDXEfAZop4oUSIqXbq0oWG9dOkSbdmyxS38PdGGWyf04squEnWEVkSIRQgWIiqZL6/cb9e5CzVq0ULuQ1OeNVVKw35dZr78N18sPpU2fQaZuisWoyqWJ7deTB/EjEnbDh4ynFd1Mxo4tSIKjFr0aN6MGTSkbx+b4znBCDACjAAjwAgwAoyAvyLgE0T9k08+ofLlyxsk/boIFbh+/Xq37okn2nDrhF5e2VWijtVB48aLJ69GX9godpw4BIdSJZ3bfk0bhEOvWQ6eO2+QcKsILpPnzqWceULIP6LLQGv+5x9/GM206diRmrZuI9PQpkNzf+f2baOcdxgBRoARYAQYAUaAEfBXBLyeqMcRhLBy5cqGk+EdoZVdJbS07ogn2nDnfL5QNyyijtVJB/0w2jBvwTWNHDSQZk6ebFweorkgqgvkiQjvWFxoyxHqUcnwceOpuJgFgUDrni9TRpty82JIIwYOpFlTQttX7ew8eoxifvihTJ45eZJqli+ninjLCDACjAAjwAgwAoyA3yLg9US9Tp06Rrxu3AWsOurMTvnZs2e0YcMGmxvmiTZsGvSDhE7UYdLy6MEDeVXR33lHxjGHxlxFe0EBiHhA9mw2EVvKVKxIA0eOMtD4/dEj2rB2Df12+w4FCF+CdBkzGmUnhMNv3cqVjHQ0sQLqziNHZcx2ZN68cYNKFyxglOs7JcXKs0N/HGNkdWjZkoI2uDejYhzMO4wAI8AIMAKMACPACPgIAl5P1Bs0aGCYTriCKUj81KlTbap6og2bBv0goRP1sC4Hjpwg2b+IlV/N0rnn91SnYUNztk0aK5FWFvHTn4tBlJK+Q4dRhapVZRLa9uplAun82bOq2G67YtNm+iJ5cpmPQUP+zJksbeLtDuQMRoARYAQYAUaAEWAEfBQBryfq9evXp+hitUxXBfG3p02bZlPdE23YNOgHiUPnLxhOmubLAYZYqfTe3bs0beIEWrV0qbmKTRpOpa2+6WA3oAIBP37kCDWoUd2GVENbDwfSN954Q7azfvVq6tKurU2b5kQKEZZzqQjXqGTqhPH047BhKslbRoARYAQYAUaAEWAE/A4Bryfqfoe4H19QgoQJqVip0hT3o3i0PWgLHT100I+vli+NEWAEGAFGgBFgBBiByEWAiXrk4sutMwKMACPACDACjAAjwAgwAuFCgIl6uGDjgxgBRoARYAQYAUaAEWAEGIHIRYCJeuTiy60zAowAI8AIMAKMACPACDAC4UKAiXq4YOODGAFGgBFgBBgBRoARYAQYgchFgIl65OLLrTMCjAAjwAgwAowAI8AIMALhQoCJerhg44MYAUaAEWAEGAFGgBFgBBiByEWAiXrk4sutMwKMACPACDACjAAjwAgwAuFCgIl6uGDjgxgBRoARYAQYAUaAEWAEGIHIRYCJeuTiy60zAowAI8AIMAKMACPACDAC4UKAiXq4YOODGAFGgBFgBBgBRoARYAQYgchFgIl65OLLrTMCjAAjwAgwAowAI8AIMALhQoCJerhg892Dkib9XHb+6tVffPciuOeMACPACDACjAAjwAi8BggwUX8NbrJ+iUzUdTR4nxFgBBgBRoARYAQYAe9FgIm6996bSOkZE/VIgZUbZQQYAUaAEWAEGAFGwOMIMFH3OKTe3SATde++P9w7RoARYAQYAUaAEWAEFAJM1BUSr8mWifprcqP5MhkBRoARYAQYAUbA5xFgou7zt9C9C2Ci7h5eXJsRYAQYAUaAEWAEGIFXhQAT9VeF/Cs6LxP1VwQ8n5YRYAQYAUaAEWAEGAE3EWCi7iZgvl7dF4j6+h07KUGiRHZQz585kwb36W2XzxmMACPACDACjAAjwAj4IwI+SdTfffdd+ueff+jFixfhvifvvfeebOOvv/4Kdxu+eKAvEPWgffvpo48/toN32cKF1Oe7rnb5Ec14/4MPqP+w4URvvCGbmjJuLJ06ccJo9tsePShR4s9kes+OHbRo7hyjjHesEejWty99/El8WRi8ZQstX7TQqFilZk3KXzhApu/cusWDLwMZ3mEEGAFGgBFgBGwR8AmiHj9+fMqYMSMlSJCAokePLvhUCKH6999/6dmzZ3TkyBE6c+aM7ZVpqVixYtGXX34pj48TJw69+eabRinaeP78OZ08eZKOHz9O//33n1Hmjzu+RtRB8H69fkPeiuCtW+jc6dMevy2ff/EFrQraYrQ7ctBAmjl5spHee/IUvSsGdpDTJ09QrfLljbK+Q4dR9ly5jPSenTupX/duRtq8M3/VKooVK7bMHv/DKFqzfLm5il+kD5w9J3+ruJjDBw5QwxrVjeuauWQJZc6aTaYxUM75ZRqjjHcYAUbg9UKgaq1a1KhFS+OiH9y/T3UrVzLS5p0+Q4dSjly5ZTYUJ/16dDdX4TQj4FcIeD1RDwwMpEQWZhDmu/DkyRNatmyZJN3mspw5c1KmTJnM2XZpkIalS5cS2vJX8TWiXrtCeRvtdmTcl4gQ9dVbt1GSz0NWe0XfMNArlic33fvtN8uuHr5w0Rgozp42lYb3729Zz9czmaj7+h3k/jMCUYNAzwEDCWRdl77dvqOlCxboWcY+lCp4Z0Munj9PVUqVNMp4hxHwRwS8nqhXrlyZ4sWLZ2D/v//9jx4/fkzQhEM7/tZbbxllDx48kETbyHi5oxP1v//+m54+fSrJeLRo0WQb0NIr+fPPP2mhMLFA+/4oTNTt76oniTpa37ppE7Vv3sz+RCKHiToRa9QtHw3OZAReSwSsiPr9e/eoSM4clngwUbeEhTP9GAGfIOog5BcuXKADYgodpi5KQLQDAgIoWbJkKouCg4Pp3LlzRho7nwuNJ7Ty58Xo+554AZgF2naQeSVWbagyX98yUbe/g54m6hjkFcqWlR7//rvdyZioM1G3eyg4gxF4jRGwIuqAo1Ob1rRx3To7ZJio20HCGX6OgNcTddilg1xDk+5I6tatS3AwhVy+fJmCgoIcVXWYX7FiRfr4pQPjxYsXaevWrQ7r+nIBE3X7u+dpoo4zwPa8e8cOdidjos5E3e6h4AxG4DVGwBFRv/Xrr1SqQH47ZJio20HCGX6OgNcTdVfwL1KkCCVPnlxW/V1oMRctWuTKYTZ18ubNS+nSpZN594UzC+zd/VGYqNvfVU8R9UcPH1JsMfsDQVSiPOnTkTmqUFhEHfbutRs0pILimY730Uf0TowY0nka7dy9c4fOC6fpXl27WGrr+wwZQpmzZRemXU8oaP0GatSyJb3//vv0+6NHNHXCeEJ4y2kLFtKX6dNLO/mHwlQMJjrHDh+2B0XkYMaqU4+elLdgQfpUDJhjiMEwTMfuCvt76cQlnGYdmYixjbolpJxpQmD0pMk2Ph7XfvmF2jVraqrl+WShokWpw3chTt/rV6+mHdu2Uuee31OqNGmk4/hzMXP7y5UrNHrYUNq1fXuYHUgvZmU7dutOScXsLt4B+O08EWaU18X1DOrdm44eOui0jbTpM9CgH36QdQ7s2UP9e/agClWrUqtvOojoSZ/I3yveKQ+E0uqnsWNo8dy5du0l+uwz6jN4CKUVgReguEIf4DPzlwiWcFOQ3vVrVksneVybI0mYODH1HTKUkqVMSXHixpXvHpiK3rxxg2ZM+smp8/vyDRspmgjU8Nud29S0Th1q3rYtlQgsIzGBiSp8v46Ld03bpk1sIrbpRB3vF/T57bffll1s/lVd2rtrl013wyLqEXmHwlb+q8ZN5PnmTp8urwERyIBZsFDeQcvfa9BgKlWuHCFyHK7ppx9H2wQfsOmsSCDKVfU6dQn3J+aHH8rrw7v3/Nmz1KXt14TvBgsj4AwBvyDqxYsXp6RJk8rrvCPIzCoRWcNd0Z1Wr127Rhs2bHC3CZ+oz0Td/jZ5iqhfECZX+MDgYw2ZP2sWDe7dy+aEYRH1Y5ev2NS3SuCj0bJBfRlNRS//OXgH4UNrJfj43b97lz4SH31d8GHMlfZLScD1fGACUm8VJlPVg8NsvWpVRVSe6yrL2DJRN6DgHScI7Dl5ShIeVQXEJ2+G9CoZadumrdtQm44dZfsYHCQUppG6v5M6MX43IwYMIDh+O5KO3bpJcqeikZnroY0p48fR2BEjzEVGumTZsjT0xzEyjQECztejn2NH80zJQpwpVQMVq1UnDNTDEkfmJDiujJhV7ifC1OpR0cztbdm4kTq2amk5QFfvLoRNXrdqJVWsWs18uEyDmAYI+/N/xcADohN1zJwvW7iAatT9SpZduXSJKhYvJvfVv7CIuuqHqm+1dfQORRQvDJAcCd51INxmwcBk/57dNtlQbIybNt0mKphNBZEAVh2EQmWHiGjGwgg4QsAviHod8SPB6BZyWIzYDx065Oh6LfNB8kH2lWwXGhTYs/ujMFG3v6ueJOojBg6giTNnyZPgJZwrXVrjg4RMV4k6Pu7Quvx2+7bcgmAnF1ouaMkgKC9TuJANSdaJOrRv0L6nEbNEOoHAh/CSeLaRr6Rru3b08+rQwS00glv2H7D5YOMDBa1afKFZ/0xo/VWbCKUWkCO7asrYMlE3oOAdJwh4A1FX3cPs0FVhOvlCzF4lT5XK0OqivHGtmnRw3z5V1dgOGDGSylYKDSUIAnhJ+FPh94c2MKOl5PvOnWilCE1qJTpRB5H9UIQUVr91tIkgB7Fixzb6pBN1fPt2HT9h1Mfg+5QINQyHTGjjsXicGnB3FhrcDWvW2HUhhejrUjELpwRYYMAALJKI76MKT4vyVSIyWs9O36qqxtaKIGMwf08oCJKIgb/6RuOAMcOHy8EL9s1EPX/mTLRbXI8aMNSpVJFOHjuGqlJcJerheYeaiTpwTJ02rc0gDu2iP2kzZDD6uEUo9r5p2UJ1UW7NC/fhXYnnC+t24F2uBobAulT+fHRHvOtZGAErBHyeqMOGvazQRiiByQpMVxwJYrJ/+umn8qX2gfjBYD+2eAEq8WezF1wjE3V1p0O3mK4tXrq0kbF/925JjlVGzjx5KU68uDKJF60ey10PzwiNetXSpWj9zl2UIGFCWX/S2LE0bmSoJi0soh58+IiIGrORRg0ebDclCgK9cnOQYV6zXfhiYBpZiU7URw0eJKaqJ0mzlQkzZqoq1KphAzmVX6dhQznVj4LN638WWrJWRp3JYlod1wyByU0rob3XSUqGzJmltl1FS5o4ejRNGB0yba8ayVOggCQbSAOXy4K8KAEpAImB/C5IiXlqW9Xjrf8j4C1EHYPqGuXKGs8piDJ+a3FfRhxTv239jiROkoTWbN1mDFqltrl1K2NgDqI9YvwEKlKihDzsmTAhAQkFkTaLTtRVGQbHDcT6AxisKyldrjx9/e23FFiooMqi+k2bGmY8mJEoLsLDwuxGF5iydOreQxJkrAVhlrnLVxDMdyAYGNQsX46gzYbgOqYLc1K19gEGIQWyZLY7h07UQT67tm9nDArwjl267mdpUoM2QeCL5g5Zf8JM1LOnTkUDR46SGn7UPSPWOEF/lIRF1CPyDtWJ+pGDB6lB9WrS5G/PiZPGQEgNVGCaCIUGBIORorlCA1LUbtCAunwfMpsKYj9y0CCaNSV0bQ68yxesWm2swI0BQe2KFdQl8pYRsEHAp4k6RqS1hE1ZDGHHC7kiNACbN2+2uUBzAlFiUqRIYc6WGspTp07R3r175b5dBT/JYKLu2RtpRdT1jy4+zrmFrbqSsIi6qudoq7cNzRuiyyjRiTo+5PjQ4yOLc0IDjg9G1pQp5LT1J2KAumn3Hnmo+iAhAU37wtWhGjcsVIQFi8wSWL6CYVMLUpA3YwZzFU4zAmEi4C1EHSZqMFXTBXbjWKBMCWawbgizSCUgWvD3gMDeuFpg6GBf1cFWX2l5aL++BNtns+i/a5TdFiv2lswXMlg21zWnda0+/E3qVa1iruI0DXM5vDuUWGnd8R7Zf+asodFfMm+e3UJDOlGH3X+Xdm1Vk3ILzfSiNWvlPmb2QMghVkQdA6Xthw4b5BjmL2rgEBZRl406+adjbX6H6kRdV0DgXYl3JuSbFs0JgzKIWgwPdvzwSVICrN555x2ZhMIEihOzYJYU7QJbCN7l6A8LI2BGwKeJum5Xjh/+nDlzLLUV+kU7IuqoA/v2jeIHiJVK/VWYqHv2zloRdZxh64GDhjZuxMCBhjYlokT9g5gxadex4/IioAXMkSa1cUE6Uc+SIrlhR6rOCU1etlQpZX18HI5cDNGYnRMmMtXLBMr8dp27iFUCQ6Zwr129SuWKBBjtm3f0jxHatdIUmo/hNCOgIzB26lRKnORzIwvOl183aWykI2tHt1GHhji7+B0pm2n9nCCL0H5C4OCpO3EePHfeIK6OBrQ4rmW79tRCmJdBHK2xoJNH1FMzX9gPS9p17mys7IlryZ8po1wrJKzjVDlMd0D2IdCmw1zPSoaPG2/MPJq13KivE/USefNYmnIcvXTZmIFQ5jtWRB3twdG4cLEQ+3TM6MH8CBJRou7sHaoTdX3RpRWbNtMXLwNWYOblrFDqQdTzoQ88MHsBx1oIZhbwLnYk81aspHTC+RfSrcM3tHbFCkdVOf81RsBniXqePHko/UttBu7fGmF3d0toIcKSmILowNQFGsZYYtQO0xnEWVcC8oOoMXq8dlXmD1sm6p69i46IOqIH4AMEQTx1TBVDFGnGPhzGrFYmxYu+W+8+lFJEoIA9o4qAgGN00Yk38nWirj6CyFf24jBjyfllGmRJUR9WaAmhLYSMnz6D8hUK2ZcZLv5zZMPr4uFcjRGIUgR0oq6bYZg7MWfZcoKpF2TejBk0pG8fuQ9tKQaq7gocV8sFFLY7TCfq5t+1XWVTRqasWWnWkqVGLsghNOvBW7aIOORrbWYBjErajj44vyxCE1cqEeqvpVWjWvXqUVfxXoJYYabeJ5i5y5w8mX6osa8P7jEgwMDAEVGHBnvjrt3GbCBmGGDH7QpRD+87VCfq+swCZgIwIwBRs5XYV7MlOiFHlJfvB9pr0FHfmSyZP5/6iUhaLIyAGQGfJOrmBYoi6vz5oQiZVFV4eivnlatCk7hJrC7pj8JE3bN31RFRx1ngEAWiDenVpQutWLwoTKKua5HkgU7+mT/oiqibP5T7Tp2Wdpbm6Vml3dLjFa/eslU6jzk5rWXRd+3by0gPloWcyQh4GQI6UXe2DP0PP02igJeBBkB8lbY/a44cNH3hIrevytGKmzpRN5tjuHISRBfJX7iwZVUon44cPCA0th0kwTZXGjXxJ8OOHqEhm9Spba4i0xjAYyAPMQ/6kaeIunmmD2VK1LsIaZjLwWzOEVFHnSlz51EOoZSDIDJKm8aNwyTqEXmH6kQd51LRWPQBW+Hs2Qwfpg1iIIHQtfo7t2f/AVS1tjWG8kIc/IM5DcxqWBgBMwI+R9RTCSe0QprGD6uVHj161HxdbqexumlREVsXgh/dlClT3G7DFw5gou7Zu+SMqMOEBNoqiHI2cqZR1zVbOAb27XC0vHH9moiffF/k/Cf+3hBtdkaxjCwBm3MlniDqui0mpneDNqxXzTvdLl2wQEaZcFqJCxkBL0FAJ+pWZhyqmzpR180vipYsRSMnTJDV8L0YPyrEdEQd52j7i1ACWUVd0Yl6WCZnjtpu0KwZ1WvSVK6/YFUH5hnVy5YxHGZVnYmzZlOe/PllEjHjYXZjJVmyZ6cZixbLIrOSAJmRQdT1iFzAGSQZswfIh5gHWRF9h3qCqCPMJu4nBLOps6e6xiX2iSAGjta0kI3xv9cWAZ8i6uYwinD+3C0ebk8IHFMbikgYSuYJZxl40PubMFH37B11RtRhB45oAYinC3M/N9wAABjbSURBVEG83GEiCoyauTGbvuwWdVU4N6U9MvcWdpKwl4TAHtXTRB0fQUylQ7B8N+IuszAC/oaATtQRdrR0wQKWl6hrdPXVhuEIGLQ3NFyjbmpm2VAYmTpRR1jE8kWLhHGE42LY1BcuVlzak0MbrZwacYSZ2CJP1wBjcA4bbCspX6WKjLOOMiyiVjBrFptqkUHUcQI9Ig2cVOHA64ioR/Qd6gmi3qRVaxmZB323MhFCPgsj4A4CPkPUE4lYsKVFCD0Vv/mSCB21RUxFekpgB9ygQQOjueViCfh7Ig6tvwkTdc/eUWdEHWfSHb1UHHIroq47OOnTqObe6h/LyCDqvUVYyErVa8jThieChLm/nGYEnCGARXbiv4ymgXq3b96KEhMqnag7W2RJt4fWY3+jr3DGVhE7EGoQpCy84kmirvcBYRF/FFFHCgSEEH8rTbgeqtUZsfym63cErT3EaiGiyCLqevQdvPPuCF80tbCbPvDwxDvUE0QdoW0R4hZijvolM/kfI+AmAj5B1D8R2ovy5csbJP26CDu3fr1rU/Ku4oGQjYgIo2SmWG4dtnb+JkzUPXtHwyLqmKnZK2zErRxCdY26HiLNyv5T9Xr5xk2U7GV40cgg6voKh3CQwmJGHDJMoc9bTyPgLeEZzYvq4DrhX4IIS0o51KZRI9qxbasBgYr4gYyIzj5FFlFH3/QIT0ibtf9me3tzGEocA9HN4vbs2EEt6tcLKXj5P7KIOppHFBU4iJpFJ+qeeId6gqhjBhW2+Ep0p1SVx1tGwB0EvJ6oxxHTeJUrVzY0FwihuEqLbRvWxeIlVUIsOHFSLJpwQ0xxWgmiv1QR03pK04lV4OYLD2x/FCbqnr2rYRF1nA1LgVcTq+eaRSfqKFPOndjHQhuIb66LHkkG+ZFB1NEuFgzBKoiQE8L/o161qpah66S5WPMWIkLSU5ozbZqsz/8YAXcQ8BaibhUHfdAPPxDWC4BYaUar16lL3fv1k+WYBWtUs4blmgOogPUJEKaxY6uWlmFMI0LUSwQGyj5gsGAlcIaFrT3E/M5Q9XcePUYxRVAFyPEjR+irKpVVkdxioaXBYmEzJVbvp8gk6jDhgRmSWXSijrKIvkM9QdTRD93uH3bqlUqWcDjjgnsPLTxHfAFyLFYIeD1RryMIjr70MFYOhabPkSCs4gaxnK8S3aQFGvKbN2/SI2Ff98cff8h2sTIpzGp0iWgUGb0tb9tnou7ZO+IKUcfzu1No5tRAUPXATNR1jRWmqPfsCCY4aUYXoeAqVq0mVxlVx2Jr/uh6wpkU7RYoHEBjNeKNyAzzZs6QAwf8hjJkykw5cuemXPnyyWtyFikC7bEwAo4Q8Baijv5h9dwZkyfRn3/8SdVE1A6srqvEvMKwyl+3PZgSffaZStLu4GDpgH329GlKKgIUpBe/FRBlRAaBYFEcRF8yS0SIugqpisFEkPj2HT6wn7A2AkxGiotFmLLlzGW8e6xIOPqir6SJNAgwBt8whSkuBgIVRFQ0JVZmLyiLTKKO9s1YI89M1CP6DvUUUceCTVhLA8oMCN7VK5csEcEBdhJMINNlyEgZs2ShwuLZgF8SLxonYeJ/DhDweqIOu3ErswEH1yNJ/FSxiIYSnairPGfbs2KFuR1iWs9fhYm6Z++sK0QdZ9S1c6oHZqKOeM0IA+ZMsPw3PsCQyCLqaBvLX9eqX9+Y9keeI2Gi7ggZzg8LAW8g6lD8KFtzq/5ihd+yRQIsZ5Xg1IhIKHHjxbM61C4vMom63clMGRhkVyhWVBJFU5FMYkViaP6dCczysPKpWvBHrxvZRL2ImBlHKEldzEQ9ou9QTxF19BGDLywk5Qp/YaKu31XeNyPg9US9viAL0aNHN/fbYRrkZZqmDcQLGLbnCRMmpBgxYjg8Dhr2YKENgcbdn4WJumfv7srNQVJzhlbPCS0awp9ZCSIxbDt4yIb4Wi0tXaxUaeo7bJgR/UW1han1Q1idr3YtY3rX7BimBg1mZ1S1zLXZaU5NE4OIYBEPs2BAMEYMej/6+GNzkUwj3NvJY8dEaLpRtH/Pbss6nMkIOENAX2sA9aKKsOjOpAi7iBCoFapUtfl9oj8Ij9pS2GI7m8XFNwaxwCtWq+aQ8EMzHbRxAw3u3duyLT3co7NFh9Ans2CBHZjVIBKNsqc31zl6+BD17NiRsOCSM4HDaP2mTS3buXDunDTvgSmHlSii7szHRr2LcLxa8Khb375Uo+5XskkMJvTVls3nUQsMqXwrk6WIvEN7DRpMlWuEONO3bFBfzpDgXDOFNjxz1mzytIWyZTX8dtbv2EkJxIw8ng+rFUjx3h87dZqYWclkiSne1ZihWDh7Ni2YPUtdFm8ZARsEvJ6o2/Q2ggkQddi8fyCchDDdBKLx4MEDevjwIT1//jyCrfvG4b5G1HVU9ZUB9Xx/20ekhqwiZnGW7DnovfffkysMmu3Vo/KaEd4ta86cok85pBnO1cuX6fyZ03TqxImo7AafixHwGAJmoo6VdWGmUKhoMcoiHKiPY2XPrVvlypnunDRxkiSUK29eSpk6Df125zZdEuY0iJ4UFQ7Z+J3mzJuPkgotP8xxHj58QBfEDDHeHQ/Fd84dgWY9rzD9iRU7DmEgc2DvHrexcOd8nq7rbe9QDOa+FJhmFyaDnyZISNev/UIXz52no4cO+mXQCk/fz9e9vdeKqL/uNxvX78tEfdnChdTnu658GxkBRoARiBACVkQ9Qg3ywYwAI8AIRBICTNQjCVhvbdYXiDps++CIZZbtQUGWtpHmepxmBBgBRsAZAkzUnaHDZYwAI+BNCDBR96a7EQV98QWiHgUw8CkYAUbgNUaAifprfPP50hkBH0OAibqP3bCIdpeJekQR5OMZAUbA1xFgou7rd5D7zwi8PggwUX997rW8Uibqr9kN58tlBBgBOwQqVa9BXXv1kvmbxSrX3Tt2sKvDGYwAI8AIeAMCTNS94S5EYR+YqEch2HwqRoARYAQYAUaAEWAEIoAAE/UIgOeLhzJR98W7xn1mBBgBRoARYAQYgdcRASbqr9ldZ6L+mt1wvlxGgBFgBBgBRoAR8FkEmKj77K0LX8eZqIcPNz6KEWAEGAFGgBFgBBiBqEaAiXpUI/6Kz8dE/RXfAD49I8AIMAKMACPACDACLiLARN1FoPylGhN1f7mTfB2MACPACDACjAAj4O8IMFH39ztsuj4m6iZAOMkIMAKMACPACDACjICXIsBE3UtvTGR1i4l6ZCHL7TICjAAjwAgwAowAI+BZBJioexZPr2+NibrX3yLuICPACDACjAAjwAgwAhIBJuqv2YPARP01u+F8uYwAI8AIMAKMACPgswgwUffZWxe+jjNRDx9ufBQjwAgwAowAI8AIMAJRjQAT9ahG/BWfj4n6K74BfHpGgBFgBBgBRoARYARcRICJuotA+Us1Jur+cif5OhgBRoARYAQYAUbA3xFgou7vd9h0fUzUTYBwkhFgBBgBRoARYAQYAS9FwCeJ+rvvvkv//PMPvXjxwkth9d5uMVG3vzfvf/AB9R82nOiNN2ThlHFj6dSJE0bFb3v0oESJP5PpPTt20KK5c4yysHbif/op/f3333T/3r2wqnK5hxGIzPvq4a5yc4wAI+AAgQ9jxaKYH35It379lf79918HtTibEfBfBHyCqMePH58yZsxICRIkoOjRows+FUKo8KN99uwZHTlyhM6cOROuu5QtWzZKmTKlcezGjRvpwYMHRtrfdpio29/Rz7/4glYFbTEKRg4aSDMnTzbSe0+eonffe0+mT588QbXKlzfKzDt4Pnv0H0BFSpSgD2LGNJ7V//77j/56/pzOnj5Fa1asoJWLF/NA0wyeh9OevK8e7ho3xwgwAk4QqNOwITVu2Ypix4lDb775plHzf//7H12/epU2rlsnFSasADGg4R0/RsDriXpgYCAlSpQozFvw5MkTWrZsGT0XZMhViRs3LlWpUsWm+jrxAvhVjNz9VZio299ZTxG63Pny0Y9TptI777xjfxJTTs9O39KqpUtNuaHJ98TAYI8YIECe/Pkn5c2YIbQwCvcmzppNefLnl2ccMXAgzZoSOoCJwm6E61Seuq/hOjkfxAgwAm4jAGK+eO06+kTMRIYl24OCqG3TJg6recs7tOZX9ei7Pn1kPw/u3UuNa9dy2GcuYASsEPB6ol65cmWKFy+e0XeMqB8/fiynwOKIH/Vbb71llEETvtQJ+TEqvtypWbMmxRRaT12YqOtovB77niB0+MBs2rNXzvgo1O799hvduH5NaITeooSJE1McMTCMFi2aLO7dtSstX7RQVbXbwmxj9/EQ85tnT59S7vTp7OpERcaUufMoR5488lSjhw6laRMnRMVpPXIOT9xXj3SEG2EEGAGXEMDMJn63Sp6Kd9+VixcJ78BESZLQRx9/TG+//bYs3rltG7Vu1FBVtdt6yzu0bqNG1KlHT9m/o4cPUf2qVe36yhmMgDMEfIKog5BfuHCBDhw4IE1d1AWB9AQEBFCyZMlUFgUHB9O5c+eMtKOdTJkyUc6cOe2KmajbQeL3GZ4gdBNmzKS8BQtKrOA/gQ8I7Nl1iSF8Kzp170EVq1enft2704rFi/Rim31v+cgwUbe5LZxgBBiBSEKgaq1a1HPAQKP1iaNH04TRPxhptQOzmBZt29ExQXrbNG6ssu223vIOZaJud2s4w00EvJ6owy79nnDEgybdkdStW5fgYAq5fPkyBYkpMWeCKbHatWtL++E7d+5Ijb3SzDNRd4acf5Z5gqjvPHpMOjwBoaH9+tLc6dMdgoVnDQ6mzsRbPjJM1J3dJS5jBBgBTyEwac4cypU3n2zuwJ491KRObadNwx/IWUAJb3mHMlF3ehu50AUEvJ6ou3ANVKRIEUqePLms+vvvv9OiRY41lahUXjgDwkEVDn4LFiygatWqGSY0TNRdQdy/6niCqB+7fMUApWjuXASzF3cENpmTZs8xnE+jCQeqJJ9/LpvAc/rLldD2VbtrVyynSWPHqqSxhalK9dp1KFuuXISICWqqGH4ciJywb9cuOZgwDtB2uvbuY9ikIxsmO/ggQh6L39aD+/flvvoHh+4qpUvRv2IWQZdBP/xAKVOnkb+xpuKD++jhQ71Y7rfu0JECiheX+0P69iF8nK0kT4EC1Lnn95RQ+Kq8EyOGxEg5kp8XTuTLFi6wtPf3xH216g/neQ6B0ZMmG885Wr32yy/UrllTz53AQUuFihalDt91k6XrV6+mHdu2ymcsVZo00nH8uQhSgN/c6GFDadf27Q5aCc1OL2ZoO3brTknF7C7M4DDbC9+S6+J6BvXuTUcPHQytbLGXNn0Gwm8Ggt9B/549qIIwkWj1TQf6+JNPpEMlZuoeCKXVT2PH0OK5c+1aSfTZZ9Rn8BBKKwIvQHGFPign9pvid79+zWrpJI9rcyT4vfcdMpSSiQALMNVD4AaYn9y8cYNmTPqJ1ixf7uhQWr5hI+G99dud29S0Th1q3rYtlQgsIzGBcgLvn+OHD0u7ciuCvfXAQYr70sx13MgRlu82hycXBZ58h+LdW7tBQyoouEW8jz4y3jt//fUX3RXKPbx3enXtIt+J5j4Flq8gr13l43nAHwQKx1+vX1dFxnZAz560f89uI40dT75DPfFs2HSOE1GKgF8Q9eLiY580aVIJHDTkq1atcghiihQppLkMKpwQIfj2CueOhmIqjTXqDiHz+wJPEDqdqI8ZPpymjB/nFm74UM938txaNbZv9y5qJmaTdClZtiwN/XGMnmW5jw9v3cqV7MJG4mOLj7Q7kvPLNIQPmC7bDx02Pk4VixejK5cu6cVyf86y5ZQhc2a5P6x/P5ozbZpdnWFjxlKJMmXs8s0ZmZKF2rWqMk/cV9UWbyMHAThMY4ZTCchc3gzpVTLStk1bt6E2HTvK9jE4wCBQfQP0k4LojhgwgGZPm6pn2+x37NaNvmrcxBhk2xSKBNrA+2DsiBHmIiOt/24xQMD5evTrb5Sbd8zPe8Vq1anPkCHmanbpTm1ay4gpdgUio0zFitRPhKnVo6yY620RUdE6tmppGSZRvQNBwtetWkkVq1YzHy7TGLQH5MxhN7gP2rdf2qCj0jFB6OtVrWJ5vKNMT71D5fk1xYuj82HA07JBfTosTHJ1gVIB5jnuyODevWj+rFk2h3jqHeqJZ8OmY5yIcgT8gqjXEaN39bI/LH7ghw4dsgQSmkWYyeCFjJfJ7Nmz5QuHibolXK9NpicInR7CER8ikNOHboT5hDYIZiZK3hDaMF2jfk2EJDPL2pUr6Kcff7TJhjZHaeaggbt/9y7dunlTEOnn9GnCREabOOgP4ZSdP3Mmm+OhUc8rNNhKEggCo2vUzdeEc1hp1D3xkSlWqjSNGD9edUVq5E4eO0pPnzyVmv7EQoOI6W2ImbggzxP3Fe2wRB4C3kDU1dVhluaqMJ18IQadyVOlMmaiUN64Vk06uG+fqmpsB4wYSWUrVTLSIG+XhD8Vfhdo4/333zfKvu/ciVYuWWKk9R2dqOP9gZkw5XiONv8U2vlYsWMbfdKfd3z7dgnHc1UfZnWnjh+Xg3Bo4/EbhhMmpHPbr2nDmjX6qeV+CtHXpes3GPnAAgMGYJFEKMFUeFpUQLQqRK0yiyLqej5mFu+Jd1CSL74wvtEot1JmzBTYZM6aTR6O84Oonzh6VG/O6b6n3qE4iboWDLLwzvvt9m25/UjgmVwoMhTWKC9TuJCNlhzv4Bbt2hl9hTYd9w4CjTqUJGbpL9bqMGvUPfEO9cSzYe4rp6MeAZ8n6rBhLyu0iEoQovG+aXpelRUrVoy+EC8MCOKl/yI0KRAm6hKG1/YfpmuLly5tXP/+3bttSHbOPHkpTry4shwf8nOnTxt11c64adMpf+HCKikHgMePHJYftQ1r19Kff/xhlLmyE177ynyFCkmt2LwZM2jaTxPttFaYop+9dJnxoQkrTGR4bdQ98ZGZvnARZc2RQ8J18tgxqlOpoh10MGGo16SpJFLmQk/cV3ObnPYsAt5C1KG4qVGuLF0WJBsCorxyc5BhinFBBCioKky8dEksopCs2brN0KRLbXPrVsZvDmRuxPgJck0FHIfIJRgYW/mn6ERdnQMmEg1qVJckUeWVLleevv72WwosFOK4jvz6TZsaZjyYkSieJ7c0u1HHYItZMjiygyBjLQizzF2+gvBugGBgULN8OWMWDNcxXZiTKhKNQUiBLJntzqHILdoA0e7avp0xKMBvcem6n43ZOhB4mAjqUkVEYft+4CA9iy6LiC8w2VktvutWBNemsikR3ncomgk+fIS2btpIowYPtjPbA/HGs6HMWcIKExleG3VPvEM98WyYYOXkK0DAp4k6NOO1hKd4DGG3CrkiNACbN2+2hFEn9HfFCH+FWHRGCRN1hQRvw4sANBewsURkFyuBluxnYdoy8cfRdi9+q/oR+chYtafnDR833hiYhBXi7FUS9fU7dkptIPpupYHTr4n3fRMBbyHqVqYHZlMKaE5vXLtmAL1g1Wr6Mn2Imc75s2epWmDoYN+oJHZ0kw5HjuZmon771i0qmS+v3ozDfV2rHx6TEdil/xwcGqHKSusOsr7/zFlDo79k3jzq16O7TZ90og67/y7t2tqUp06blhatWSvzoFnOnjqVTTkSKEc9K4F5HfwFYL9+8fx5qyo2eZH5DtXvF97thbJltTm3nniVRD2iz4Z+Hbz/6hDwaaKuL4aEH/4c4TVupa3ASwbmMSD0mKpauHAh/aFpOJmov7oH0J/ODA3LT2KBoDTpHMc8h6Zp+ID+TqPCAJPI/MjAfhJ2lJCzp05JTaJMWPx7lURd/2iDIIEosfgXAmOnTqXESUKcpnFlcL78uonjkHueunrdRh0a4uxpUhuacP0culYTDp66E+fBc+cN4tpQaL7NtsqqnZbt2humEFs3baL2zZupImOrEz9ktmrYwCUnVtRt17kzNWrRErvS5CZ/pozSAVRmuPAPpjsgdBBo03OlsybK+gD/zMmTUuuuN68T9RJ589AdYS5ilqOXLhszELr5jqqHb3X/4SMosEIFo54q07ebfv6ZOn/dxtJWXtWLzHcoVp3edey4PBVmY3KI58eRvEqiHtFnw9E1cX7UIuCzRD2PiGyR/qU2A5CtEXZ3t4QWwkpy585NGTJkkEUnxQtmjym6BBN1K9Q4L7wIwMMecX6xUunHIroQIieYZXj//k4d1CL6kSlSogQhqkp8Yfv+nrCTdeQghqnlSiWKm7tnpF8lUTc7ZcF0YL/47YLsYFoamiwWRiA8COhE3coMQ7WpOzzDnAzRiSBYfRgaZncFjqvlAgrbHaYTdSibsqVy3aE7U9asNGvJUqNNKAOgWQ/eskU4jq61mQUwKmk77Tp3EUS/hcxx9j6oVa8ewYcFYoWZIupQhmVOnkzWM/8DZmrlZgwIMDCwEsxQNmrZkuCn8pmIwGLl6BtWCMeIvkNhLtRNXG9KEQkIbanoWeb+hnW/XiVRj+izYb5WTr8aBP4PAAD//w339oYAAEAASURBVO1dB5wUtRd+oKJgRVREFClSRHoVpHeQ3pt0kCYoTf4UQUBFEBtFRCkiCCJIFY4uvRy9dwsooBRBEFGBf74smcvOzpbb272b2X2PHzeZJJNJvuzMfHl5eUmWMWPGW+QwyZs3LxUpUsSo9Zo1a+jIkSPGuR546KGHqEGDBjLq33//palTp9LNmzf1LNS6dWu68847ZdzixYvpl19+cUuPpJOMGZ+Wzfnxx58iqVm2bUvy5MmpYrVq1KxVa8pboIBRz3/++YdK5M1D169fN+L0wL333Ucb9+yVUdf++ouez/Wcnuw1fE/KlDRv2XJKlz691zx6woljx6hOpYp6lFv48+lfUeFixWTcRyNG0KTxn7ileztZs30HPZQ6tUyuXbEC/XD8uEfWad/Opdz58sn4kcOG0rRJk9zyJL/jDlq5eQs9nCaNW7w6+fPyZVoRs4SG9O9PN2/cUNF8ZAT8ItC+S1fq2rOnzHdMfDvqValsec2Hn06gshVdz8faVavolXZtZb4ChQvT5K9nWV7jK/L8uXNUrkhhjyyVq1enER+PlvF/XLxIpQvGvSs8MltEjJ00mUqUKWORQoR3zc5tsdSvRw8699tvHnk+GP8platUScbHbtpE7Zo19ciDiBdKl6Zxk6fINLy3ijybQ4bVn90nfpBB3K9wjuwq2u24Zf8BwjsKUjxPbrp65YpburcTvCdatG1HFapWJbxTlbRq2EC0bZs6dTsG+w5FIR9N+IzKVKjgVp63k//++48KZsvqLZmat2lDvQcMlOm7dmynlvXre82rJ4TiHYryEvLb0OvD4aRDIJnTiHq2bNmotHhhKImNjaVdu3apU49jGfHyyprV9RBdFC/AU6dOeeTJlSsXJUuWTMb//PPPdOnSJfly27Fjh0dep0cwUU+6HmzVoQO91vd/RgW6tW9Ha1auNM71QLAfmVnfLabszz5rFPX72bO0fetW+uXUSbry558yPk/+Agb5+OmHH6hm+XJGfnMgKYk66oIB9KB3hlNF8YFOmSqVuXryHOSjYvFiHgNwy8wcyQgIBHSifnDfPmpcs4YlLjpR37ZlC7Vt0ljmK1+5Cr3/iWvQeuvWLRr3wfuW15sjf/rxR1q6aJE5mnSi/rPIU6NcWY88/iLwfmnRrj2leeQRy6xQVDWs/iKdOHrULX381C+pWIkSMm6DUHp1bt3KLV2d5C9UiKbM+kaeWpHTcBJ1VYcMTz9NC1d/r07pu/nzqN9rrxnneiDYd2j3Pq9Tm44djaKgKNm8YQOdOvkzXTh3XsRDt5mMuvfpI/PcEEqCAlmfMfKbA0lN1FGfYH8b5rbwedIg4CiiLgYVVPG2dgNw7d+/nzZu3OgTuXLlylGWLFl85rFKxMv3888/t0pydBwT9aTrPmiItx8+YmiEJoweTWO9fOCD+cg89vjjtHzjJqOB7wwaRDO/nGqcq0C33r2pbafO8jQpifpcofnP/IzrA2elUVf1VUd8pKFRK1epMj2XJ4+BI9K/nDSR3hs2TGXlIyPgEwGdqP8qlDdVS5W0zK8PVBfNnUv9e/aQ+R557DE526Muyps5kwoGddSJur9n0t8NMJNVpkJFObjFbNjdd99tXGI1ezBw2FtUv6lLi35IfFMb1ahu5NcDNevVo6Ej35NRl/74g0oVyK8nU2IQddxw8Zq1lP6pp+S9D+zbS01q1nSrhzoJ5h2Kazfu3Uf33nuvLGbd6lXUta1rFkWVi2MmwSnmLV8ho5KSqMf3HRrf34beZg4nHQKOIerpxVR+VfGRVprv42IqfZWYivQnTNTdEbIzUX8yQwYqVtL9g7lcmCJhKjhSBNogEE7IvG9m0aDXX7dsWjAfGV1zc1qYb1Up6dKSmW/w8WefU+ny5WW0P1KgE5Uxo0bRZ2PHmIuzPMeAAQMHCKbSMaVuFn1qNxCirl+PD87sxUvo0bRpZbQ/Ex79Wg7bB4EXa9emtLd/J6jVmV9P0+IF88NeQZ2oX716lYrnzmV5zwUrV9HTmVwkfPR779Hn48Ya+XYeO24MFss/X9TSrMTI7CcQSqKu3wrKgY8nTKCSZV2zZlaa8GbC9LPPwDfkZZidQlusBLOB0MxCYMoGkzZdEouoD3zrbarfpIm89S8nT1K10qX0ahjhYN6h991/P23YvUeWAWVdviyZjfL0gD5oiQ9R37NzJ71Ur65elNdwuN+hgfw2vFaOExIVAUcQ9ceE9qKmGDUrkn5SPJwxMTEBAQVtQiovU+aqgLp16xov3A1iiuv06dOEh++ysIGNNLEzUe81YAC91MZde9G3e3dasnCB7bsBvzNv9uZ65XVtjT/iqz58WFOR/xn/s0IdBVadur8qb+dtOh/13CBs3++66y6Zzx9RHzVuHFWoUlXmnT1jBg3t309vjtfw7CUxlDV7dpk+YugQmj55slve1A8/TKtjtxnPdHyJOgoDyXv7/Q9kuRfOn6eyhQu53YNP7I/Apn373d7PvkhzKFujE3WU26xObdq3e7fbLUD0QNrUd6ersDVe9/1qI48+0FwmFAq9u3Yx0uIbCBdRRz1g041BhRKz9t9sb/9imdJ0SpiAmkUnjpvWraOOLVu4ZVHvq2Bt1AN9h2JtAOoM8Ud8VZ0CfYc+8eSTtGTtOlm2lR2+TBB/dE22P6Ku9+3PP/1ENcqWUcX4PCbGO9Tfb8NnBTkx0RCwPVFPLTRnOpE+K2xuFywILXHjxaSJ9nvzeSMnE3WQTixuHDqgv6X2GA3XNUE496eFiz10mFKkSIGs9FrHl2nVsmUy7O2PvtgLH8vSYmr6L2FfqcuYiRMN7Rri/RF13UzmjBjAVn6huF6c1zAWnaE+EKt7fDLlCypeKk4TZkXUob2DbSim463knQ8/pGo1a8kkKw2f1TUcZy8E7ELUjxw6RA2quQakCiH992W1oLths+bUf+hQmR3a1zaNG9EOsWbKSnI895wcRPfs3Img1TaLTuasnhdzfv28klisDsFgwUqwGBa29hBvpHL9rt10/wMPyDxW5LdqjZo0/KOPZDr+WC3iVKQ4WKKORY958ueX9v4zhNMHK8FMIGYElXww/B2aImYMvEl836EoZ9fxE8bgzKqd0ObjXa7EG6YqXTeTwYABC4Uvi3Vw/iQU79BQ/Db81ZPTw4+A7Yl6s2bN3DQu54XmzOy1RYfp2rVrtHTpUj3Kb5iJul+IEiWDk4m6rl0DoYVGe/+ePfTb2TOUMXMWqlGnjmGmATAD0azMiVlKz4jF0xD85jevX0/Hjhymv6/9LeNiN2+mrZs2yjD+QCO15cBB4yMDjwrLFn8nFlzNp0yiDi+1a2eY3aiL/JECeKqZOnuOyk6/nTlDG9evE8ezYk3VLbpx8wbB1t78TEILD228EmgroZFHHes2akTZc+ZUSfJoRdQVplgQG/PdItorFo1jqhveLcoKG1yQHyX+ZidUPj7aCwG7EHWggkWWUz6bIBZdX6EGwmZbN8ObMGYMjX1/lAd4ur00EjeuXUsrl8bQoQMHxHOfmXLlzScXbj+eLp28tpjw3mQePCMhIURdEToMJlaKb9+O2K10+OBBypkrt/A4VZUKFilKdwgTGIgVCUd801at6PU3BiEoBbbs8MIkF2qLgUAtzVOJt0FxQom6agcqgJkVPO8H9u6l40ePSJt0eGFBm5RgcSw86PgivfF9h6JsfeYAg6pN69bSnJkzKYV4d9Wu38BNwYD8/og6tNZbDx4yZjH/FhwFTgSwOPXGfzdQBM0VZpBYK6FLKN6hCtOE/Db0OnE4aRCwPVFvJV4gapo+EIhAGCYKrWF8hIl6fNAKX943hfs/vAh1CUSTrOdPqrAilYHcH1OqVYX9OFy1+RKQ2a8XLjKItznvlo0bqEPz5m7RcDmHaX1fgo81NFcQf0QdeUDUddeSiNMFbtqszH58YYLnFCRA2bH7Iur6vazCIO/Vy5bxGCxY5eU4eyFgB6KO36Lu8s+MkPx9lStr6QIU9uvwhOLNhai5rHASdfO9zOfQdNeqUN6DEKp8eNfog18Vrx/xnLeoX89yliuURF2/p7ewL69Z6ppg3qFwBQnXsb4Ei1jVoMEfUUc5Hbp2pS49XO5ArcodPngQWc0iJPQdqoi61T31OH+/DT0vhxMfAdsT9ZYtWxrT/4HAg4dmkskfs7/r9MHAIuE6CzbqkSp2tlHXF1oCf2ie8GFzgkAj1rx1G8qZO7fhk99cbxCCZd99J/x+9wvYfzAW2vUSPnihTVJmMKpcKztRpMFtWKsOL3uQD2iHJn86Xmj79xuu5QJdhFm7QUN6+ZVX6PEnnvAoFz6T8aI3SzqRd9rcefTIo4+6JUGj1KtLF2ovPl5qAGDloQbTy5VffNGYkncrRJzgWV8izOBgboQyWZyHAPYKgC24EswCwb92uEW3UYfbRWg3a9Wr7zEohulVJ2GLjWfXm4Dk47daW+zX4Y3wY1C6ctlSGj54sGVZurvHQJ9JVZ96jRtLsxp4olH29CpNHeG/e6AYxGMmz5dgwWjL9u0tyzl6+LA07/GmwVZE3Zdt92bx7lFuVos+l9PtuQXxfblbNypSvLjbLLq5vpidG9Crp+XeDOa8OA/mHQpt9pCRIw3vL6pcmDhth5vOpk0MExmrBboqv37MV7AQ9RJ7PuAboWY4VPqwgQPom+nT1alxTOg7NJS/DaNSHEh0BGxP1BMdkQi/oZ2Juu5FAd0Ad3tfTorf7Igdug8fnMzCr+7TmTKLj1JK+lF4SIApDD50VoQ2HHUG+SkiXLNBc371ylVavmSx1J6H416+ygRxgStF+GlOJsJwcQcNZXwEfqELPf+8MNvJSGkE6ccU8ZGDB2iX2OeACXp8kOS8CgEzUYd/dPjsL12+AuUXi5L3iN/W2tWr4/37gueqooJoZs2eQ5q9HRfmNLtFWYnhuQpmZUWKv0AZhZYf7gsvXrxAR4XtPTYEunjhgmp6QEdo1osLD1wPPpSaMJCJ3bwp3lgEdCMvmYBjjpzPSfMhDPTxzjgknnm8R9V+EF4uDVk0vKIUEL7j8xcqTKnuTUXY8Mrb5kohu6lFQaF4h4byt2FRRY4KMwJM1MMMsN2KtytRhz3o+C/iFhBhYWaJfHntBh/XhxFgBCIAASuiHgHN4iYwAoxABCLARD0CO9VXk+xK1IeMGOm2YAluALH4kIURYAQYgVAjwEQ91IhyeYwAIxAuBJiohwtZm5ZrV6Ies249pRObWkEwTQwXViyMACPACIQDASbq4UCVy2QEGIFwIMBEPRyo2rhMuxL1kaPH0FNix85b4h/c/a1evtzGKHLVGAFGwMkIMFF3cu9x3RmB6EKAiXp09TfZlahHWTdwcxkBRiAJEajTsBH1HeTyG75C7HLdv2ePJKwN35oRYAQYAe8IMFH3jk1EpjBRj8hu5UYxAowAI8AIMAKMQAQiwEQ9AjvVV5OYqPtCh9MYAUaAEWAEGAFGgBGwDwJM1O3TF4lSEybqiQIz34QRYAQYAUaAEWAEGIEEI8BEPcEQOqsAJurO6i+uLSPACDACjAAjwAhELwJM1KOs75moR1mHc3MZAUaAEWAEGAFGwLEIMFF3bNcFV3Em6sHhxlcxAowAI8AIMAKMACOQ2AgwUU9sxJP4fkzUk7gD+PaMACPACDACjAAjwAgEiAAT9QCBipRsTNQjpSe5HYwAI8AIMAKMACMQ6QgwUY/0Hja1j4m6CRA+ZQQYAUaAEWAEGAFGwKYIMFG3aceEq1pM1MOFLJfLCDACjAAjwAgwAoxAaBFgoh5aPG1fGhN123cRV5ARYAQYAUaAEWAEGAGJABP1KPshMFGPsg7n5jICjAAjwAgwAoyAYxFgou7Yrguu4kzUg8ONr2IEGAFGgBFgBBgBRiCxEWCintiIJ/H9mKgncQfw7RkBRoARYAQYAUaAEQgQAUcS9ZQpU9KNGzfon3/+CbCZnE0hwERdIRF3vPe++2jYyPeIkiWTkZ+PHUP79+41MvQaMIDSP/mUPN+0bh3Nmj7NSIuWwBNPPklD3h0hm7trx3YaM2qUz6Yj/6QZMy3zHD18mF5p19YyTUVynygk+MgIMAKRgsAH4z+l+++/n/788096rePLPpuV0Heoz8I50VEIOIKop02blvLkyUPp0qWjFClSCD7lIlQ3b96ka9eu0c6dO+ngwYNegcc1devW9ZquJxw/fpxiY2P1qIgKM1H37M6nM2WiBStXGQnvv/M2ffHZZ8b55n37KWWqVPL8wL691KRmTSNNBQoULkyjxn2iTgM69uzciXY45LdWrGRJGv/FVNmuX0+doqqlSvpsY668eWn63HmWef64eJFKFyxgmaYiQ9Enqiw+MgKMgDMQWL5xE915110BV3b2V1/R2A/eDzh/Umfceew4JU+enG7dukX5smT2WZ2EvkN9Fs6JjkLA9kS9WrVqlD59er+gXr16lb799lv6+++/PfLee++91LRpU494q4iTJ09STEyMVVJExDFR9+zGUJDCqjVq0vCPPvIs3EdM3+7dacnCBT5y2CcpvkQ97eOP09jJU4wGYBbsyQwZ5DkTdQMWDjACjICGwO4TP2hn/oOrli6l1zp19J/RJjniQ9QT+g61SZO5GiFAwPZEHZrwNGnSGE39999/6fLlywRteurUqenOO+800i5cuEBz5swxzlXATNRxrTc5ceIErV692luy4+OZqHt2YTiIuq/fmKpBt/btad3qOE2+irfjETMGk7+eJav2g5h1ql2xQryqmTlrVpq7dJm8hol6vKDjzIxA1CCgE3VonfHflyyYM5sGvf66ryy2Stt+5KjkLP/99x8VzJY1XnWL7zs0XoVzZlsj4AiiDkJ+9OhRaZICUxclmEIqW7YsZc4cN4W0du1aOixsYHXRiTo071+J6bJoFSbqnj0faqIezEvYs1aRFRPfj0wo+iSyEOTWMAKRj4BO1BvVqE6H9u+P/EYH2ML4vkMDLJazOQAB2xN12KWfO3eOoEn3Js2bNydMrUOgEV+5cqVbVibqcXAwUY/DQoVCQQp10xcm6grZuGN8PzKh6JO4u3OIEWAEnIAAE3XvvRTfd6j3kjjFaQjYnqgHAmi5cuUoS5YsMuulS5do1izXFL26lom6QoKIiXocFioUClKYUKJev0kTeqltO1ml6ZMn08vdutEjjz5Kf4sZpLXCFKt31y406J3hVKVGDUolFrZiZujTjz9yW/Sq2lO4WDFq2LQZFSxalB548EG66/biLFxz+pdfaMuGDTRi6BCV3fL4kJjFGidszJMldy3c1jPt2rad3h3yph7lNxzfj0wo+sRvpThDkiPw0YTPKMPTTxv1+Pmnn6h7h/bGebgCpcuXpx7/6yeLj1m4kNZ9v5r6DHyDsuXIIReO47n76Ycf6KORI2jDmjV+q4GFfz379aeMYnYXzw5me69euUInRXveGTyYdm3f5rOMnLly0zsffijzxG7aRMMGDqBa9etT59d60KOPPUZ33HGH9HR2QSitPh0zmr6ZPt2jvPRPPUVvDn+XcgrHC1BcqUWL18W6rV/Fcx+zaKF8X6Bt3kR5d8Lzmvrhh6Xjhr/++ouwgHzKhE9p0dy53i6Vpm3JRT1/O3uG2jdrJt9hlaq9KDGBiSreP3t27KBu7dt59diWEKIeyncofpNNW7WmUoJbpHnkEbr7nnskFtevX6ffz56lI8J5xaC+r9NlwTd8yYefTqC06R73yHJFeH0BRvGR+L5D41M257U3AhFB1CtWrCgIaEaJ9FnxEC1Y4L5Aj4l63I+QiXocFioUClKYUKI+ZMRI+WFWdTIffxGLnPEhNgte9ls3bTSiK1evTiM+Hm2cewvgw9u8bh06Lz78VmLGRM8TiNcXPT/C8f3ImO8fjCcecx343H4IbNq3Xw48Vc1A5ornzqVOw3Zs36Urde3ZU5aPwcETwmGBvt5J3Rg20qPeeou+nDRRRXkce/brJwfZyhuZOQPK+HzcWJ8uTfXnFgME3G/A0GHmoozzvJkzGWEEajdoSG+++65bnNUJBvzLFi+2SqIXa9emocJNLQYF3mTVsmUEb1VWa3AUyYbb5MUL5lPt+g0si8EalbJFCtNN4WLZLKoMxMfX9CVU71DcW68Hzq0EA55OrVr69NwVe+iw9FRnvh6/CX9eX8zXxPcdar6ez52LQEQQ9WaCrEDLCNkhRuzbt2936xGdqOMBwaJTxMEX+x9//EHnz5+nffv2yRG/24UReMJE3bNTQ0EKQ03U9+/ZQ9lz5nQjD/jt7tu9m3Lmzm18TM1eD6rVrGVo5vD7Pv/773T611/p+vW/6fEn0rtpL/8Ui7JL5MvrCYiIgTZt5sJFlPy2K1RolB586CGZl4m6JWQcGQQCdiDqqtognz8K08l/hNY0S7ZsxkwU0ts2aUzbtmxRWY3jW6Pep+p16hjnIG/HxXoqPHsoA98ZJW/06U3zZ89Wp25HnaiDyGImDBpxCMq8IrTzeP7U7JhO1PHt27Bnr5Efpnd4f2AQDm18OjEIwewcpE+3V2jpokUyrP95RtR1TsxSIwpYYMAALDIIJZhyT4sMC4TDhoG9exl5VcCK3J777Tc6J95BGTJlMr7RyD/6vffk4EVdq456GQkl6sG+Q1EXVQ+8cy8KvvDbmTPy+IjAM4uYbVB9g/QXy5QmKFKsZNq3cwneW5Q8djuM65ioK1T46A8BxxN12LBXF1pEJXDRCOKti07U9Xg9jAdn27ZttGvXLj064sJM1D27FNO1FatWNRK2btwoX8oqokix4pQ6zcPyFB/ywwcOqCTjqBN1RFppnIzMIoCXfzmhVVKia4N2it9hq4YN6B4xfb1p7z7jo6A+kJiKXbXV5esfH8HyRYuoYuiF0qWlVuyrKVNo0qfjPbRWmKL/cs63Rpn44KJcfxJf94zm8uKrDQpFn5jrwOf2Q8AuRB1aYBDDE4JkQ0CU569YSQ/f9jiGTbrqV63iBiDcjS5a/b2xr4fUNnfpbDxzIHPYW6FcpUryumvChAQDYxBps+hEXaWB/LVq1FCSRBWH98wrvXpRtdKlVBS1FN6jlBkPZiQqFntemt0YGUQAz1/v/gMkQcZeEGbBngd4N0AwMGhcswbBuxME7ZgszEnzFSgozzEIKZk/n8c9FLlFJrz/+r7a3RgU4Hmes3iJrAfSQeDLP18UQTfRy8A3Gf99SdnChQgDG0io3qEoa+2OnbR6+TL6YPhwo3zEQ2DahN8GjpA1Yk0czHkCkfi4ZzSXF993qPl6PncuAo4m6piqbCJse+8R2j7ID0IDsGLFCo/eMBN19QJQo2L9AmjWNwkbwUgVJurh6VkzUfd3F3y0n8/1nJFN/8iMF/7YP/nIZa+KDUCUFgY72YEMQNQmTLAfLaaVYxToI/De2HHGwGT9999TlzatfeR2JSU2UfdbIc4QEQjYhagPHzyIZkyd6oYp7MZnaGaU0Jye+vlnI8/MBQvp2VwuM50jhw5Rg2pxg30jkwis3LLV0GhjbQjWoJjFTNTPnD5NlV8obs5mea5r9XeLGeUW9etZ5vMWCbv0JWvXGclWWnd8K7cePGRo9LHR0NAB/Y1rENBJNuz+X+/ezS0dM4SzFn0n4+AcolD2bG7pONHL8Ei0iADZB+mHJOY7VO+vQNzNqqozUVdI8DE+CDiaqOubIeHBnzZtmqW24u6776bawv7ukHiZwnWj2hQJO5Y+++yzVKhQIUPDCPC++eYbaRITHyCdkpeJenh6ykzUL5hmdcx3xaLOprVrGdH6R2ZIv//RnJkzZdq85Sso0+2F0vpU8JrtO6RGx9sHzyjYItCsdWu5cA5JcH+Gcv0JE3V/CHF6MAiMmThRbIQVt5gUiy9fadc2mKLidY1uow4NcaEc2Q1NuF6Qes4QhwWe+iLObYePGMS1tdB8e9tluFP3V6mj2NwMsnr5cnr15Q4yrP/RiR/iO7duFdAiVuTt3qcPtenYCUFpclMibx7CAD5QgekOyD4E2vSiz+W0vFQf4B8UCi1o3XXRSXal4sXorDAXMcuu4yeMGQjdfEfl08uAaZ4vb29QuNUsX46wMBOSmO/Q++6/nzbs3iPvi9mYwuL3E4gwUQ8EJc5jRsCxRL2Y8GyR67Y2A41aJOzuTgstRDDywAMPUMOGDY0XyC+CRC32suAmmPLtdA0T9fD0hk7Ug3HPqH9kdI0WNFDQREEw3a1sIZWWDlPM+Z/J4tEoTLd36dFT2kemEnay3haInTh2jOpUquhxvTmCiboZET53MgI6UfdmhoH2wcY4d758sqkwJ1PejqD8gYY5voKFqzXKlvG4TCfq8X1/5C1QgKbOjjNfwzsBmvW1q1aJhaPfuc0CeNxYRHTv87og+h1lkq/3QZMWLajv4DdlPivMFMkGgfZmfw3MgB0EAwIMDHRRZSBOV0zoebyFQ/0OhalJP9HerMIT0L333WcMysz3j09/MVE3o8fngSDgSKKeV9jSFSkSZ5e7RrjPOnLkSCDt9ZqnePHi9NxzLlMEaCOmW7i/8nqxgxKYqIens0JJ1Lu2bWvsWKoThTKFChq280s3bKTHxfoM80cRdu3zli2XC8gCaamvD7N+PRN1HQ0OOx0BnagfE9+OelUqWzYJ7vXKCq9iEBBfpe3Xd+q1vNBLJBZ46mtTVDadqMfHlEJdP3bSZCpRpow6dTtC47tzWyz169HDMBPRM3ww/lPDjh6uIds1a6onG2Gsf4HLVgjcFBZ5NocMqz+KZPvSMG/Zf0CuvcE1xfPk9mnnnhCinpB3KOoGt6FlKlRA0K8wUfcLEWdIIAKOI+rZxOr00uKFoSQ2NjYkC0CfEq7vqlSpIosF+fn888/VLSLqyEQ9PN1pF6I+67vFlF2YcymBz9/tW7fSL6dOGlPEefIXMMgHPDtg+tifMFH3hxCnOwkBnahbmXGotuhEHV5f4P0FUr5yFXr/k09kGN+LcR+4TEdkhI8/P/34o7HAUs+mE/WfRZ4a5crqyQGFW3XoQC3atZd+v60ugBlJw+ovGgtmVZ7xU7+kYiVKyFP4jIfZjZXkFyaiU2Z9I5OsyGmkEHV9hgGNxXqizWLviVMnf6YL5+CoAgtck0mTI6TDdKpA1mcQ9CusUfcLEWewQMBRRB2+0uEzXcl+YV+7UXjoCIWkEav769ataxQ1UdhO+vPcYWR2UICJeng6yw5EHYtOsfhUyTuDBtHML6eqU+PYrXdvatupszxnom7AwoEoQkAn6r7cjX4+/SvCBmIQbPbTv2cPGYabvpWbt8gw/ljZWxuJAQR0oh7oM+mtWHgjKVOholwwjrorUxPkt5o9GDjsLarf1KVF97VmpWa9etKjFMq5JNwalyqQH0FDIoWobxSetpRbzXWrVxG082bBuiGsH4IwUTejw+ehRsAxRD298AVbVbjQU5tKHBeuo1aJqchQia6ph+ZhirBHjESxM1GHuzNobnVZLtYKKPdberzdwnYg6s3btKHeAwZKaLBYtUpJl5bMjNXHn31O2JkREigpSKhGHZs1LV6zVt4TOzZi2puFEcAmO7qf6TO/npab5YQbGZ2o+9pkacHKVYR9FiBm399KO4o03fsIzuMroSTq+r3hFvHjCROoZFnXrJmVJlxfXG5le67Ke63v/whaewhcN9au6G4aEglEXV8kajYrVDjgqA9aEouo8ztU74HoCjuCqD8mtBc1a9Y0SPpJ4V82JiYmpD0FrzCP3t4UAhsizQnAt3RIK5BIhdmZqPcaMIBeauOuvegrvCUsWbggkdAJ/jZ2IOrwLAEPExBv0/nQrmFzFLVxSmIRddRJfcgxU1UwW9aInLFCO1kCR8Au7hmb1aktNxPTa44FhPDsoZRDXcVAeN33q40sukcY7PaJXT+DlXARddQHrhUxqFBi1v6b7e3NbijVdbqr2E3r1lHHli1Ukjyq59vJNuq6q0orO3zV4LliHVDmZ1zmLolF1HFvhTG/Q1VPRMfR9kQ9tZjGg0mK8nl+VtjcLtB82wbSTSWFlvbgwYN0zst26QXEqvmCBV2bOaA8q91NA7mPE/IwUQ9PL9mBqOuLvfCxLC2mps1u2uAOT2nXgERiEnV9IdmYUaPos7FjwtMZXKpjELALUbfyg/7Ohx8SdvqFmPc9QFzDZs2p/9ChCMpF3W0aN/LqojGHcFSAQXTPzp0sXQgnhKhXqlZN1gGDBSvBYljY2kO8kcr1u3bT/cL7GWTPzp30Ur04M1DE6e83nGNDNmzMposikU4m6miP7kLSqp31xd4tA99622i6N0yNDFpAzcL40tZr2T2C/A71gCQqImxP1Js1a+a29TB2HfVlO35NuHtaujRuK2T0YnuxcxsEU5xw4fiHsK+DL/WHxJbMsHu/T2hOlCDPV2Izh0gVJurh6VnzhwwLwvzJnJkzaIqYloborsWC9VgAbfmWAwcNDSBMTOCe7bv58ylT5iz0Urt2lOHpOJ/VuK8VUYcmsXaDBkg2JJtwUVa7QUN5jnLHmhbPYSp841qXaYtxkSmgtxFJsIfFTq83b92UOd99801HmDmZmsWnCUDALkQdTcCupFM+myAWXV+hBsJmWzfDmzBmDI19f5RHS2HOBZMEJXgGVi6NoUNi9+KMmTOL3T7zyYXb8NAEweZk5sEz4hNC1OGJBYN0DCZWim/fjtitdFgoprBhU0WxCVPBIkUN96xWJBz3b9qqFb3+xiAEpcCWfdqkSdJLTEUxEKhVv75KsjR7QWKoifpvwg+72vPEuLkpAJzVTIb+fgn2HYri9ZkDmAptWrdW7muRQrxfa9dvQMVLxe0Ki/zeiDowgymNLn0GvmGcYvMrXa5euUrzvpmlR3mE9TYikd+hHhBFZITtiXor8QJR0/SB9ABIPBaC6qKIuh5nFcZDOV+QGpi+RKrYmai/OWKEfBHq2Ou7cerxdgubiXog9dM3P9FfwAn5yHTt2ZNgf+tL8LHOk9+1EMyKqGMBGhbRxUewYyOmzH0JXEeu2hprLNQy520pBge7trtr6cx5+DyyELADUcc3Q83YWqGLvQuqlytruSES7NfhCeVh4YwgEAknUfd3f2i6a1UoT1g8ayVfL1xE0Pz7EpiDYOdTEESzhJqom8u3OtfdXYbqHQq/+XCL60sO7NsrB0LI442oK+25r3L0NPwOrfbE0PPwO1RHI3rCtifqLVu2JOwgGqjgoZkkNAG6wL4d9ue+Xsbww75BuGACWY9ksTNRX7j6ezeNLzRP+LA5QSpUqUqjxo2LV1VXxCwRU+Eu7yuD3hlOdRs1ktd3atXS0E5/MXs25SvgMssqXbCAoXGOWbde+kq3erljp8JWHV72+L3jtz350/HCfn2/4VrOyo+67oYt0AYF6lIOWn9Mw+cVpmbKs4K6h5WdsErjY2QisFGsl8AMjpLEWmisLyaF20W43qtVr74xG6XqA7d8nYQtNp4zb4LvCkwhMAvl7RuDRZorly2l4YMHW5alu3u0eia93Rvx9Ro3lmY18ESj7OnN+Xft2E4DxSAeGy75EiwYbSlmoK3KOSp29YZ5z+VLlyyLUETdl233ZvHuSZkqlbze34ZHljcxRZ77/XcqX9S1p0oo36F4nw8ZOdLjHQWTle1w09m0iWEig/cq1tyYZcfRY8ZMhjnN6tzqXW6Vj9+hVqhEdpztiXoo4QdZf/DBB6UpzZ133kmXxRbFsFu/JF48eACjQexM1M0aiPeGDaMvJ7nPjkRDH4WijSA/RYRmHJpzTKkuX7JYmrmEomwugxFwOgJmog7/6PgmlC5fgfIXLkR7sLPn6tUeO2f6azc8VxUVm+dlzZ6Dfjt7ho4LcxrsEpoYnqtA4IoUf4EyCi0/zHEuXrxARw8dkrbkF+M5SwzNenGxtuvBh1ITBjKxmzfFGwt/WNk9HR5zCgjf8fkLFaZU96aSG16Z7fLt3gauX2QgEFVEPTK6LGGtsCtR193/oYV/ikFUiXx5E9ZYvpoRYAQYAQsErIi6RTaOYgQYAUYgyRFgop7kXZC4FbArUdftC4HI0P79aPaMGYkLDt+NEWAEogIBJupR0c3cSEYgIhBgoh4R3Rh4I+xK1JXNNVqCaWLYY7MwAowAIxAOBJiohwNVLpMRYATCgQAT9XCgauMy7UrUR44eQ08J14G3xL8Jo0cTPKKwMAKMACMQDgSYqIcDVS6TEWAEwoEAE/VwoGrjMu1K1G0MGVeNEWAEIgyBOg0bUd9BLr/hK8Qu1/179oiwFnJzGAFGIFIQYKIeKT0ZYDuYqAcIFGdjBBgBRoARYAQYAUYgiRFgop7EHZDYt2eintiI8/0YAUaAEWAEGAFGgBEIDgEm6sHh5tirmKg7tuu44owAI8AIMAKMACMQZQgwUY+yDmeiHmUdzs1lBBgBRoARYAQYAcciwETdsV0XXMWZqAeHG1/FCDACjAAjwAgwAoxAYiPARD2xEU/i+zFRT+IO4NszAowAI8AIMAKMACMQIAJM1AMEKlKyMVGPlJ7kdjACjAAjwAgwAoxApCPARD3Se9jUPibqJkD4lBFgBBgBRoARYAQYAZsiwETdph0TrmoxUQ8XslwuI8AIMAKMACPACDACoUWAiXpo8bR9aUzUbd9FXEFGgBFgBBgBRoARYAQkAkzUo+yHwEQ9yjqcm8sIMAKMACPACDACjkWAibpjuy64ijNRDw43vooRYAQYAUaAEWAEGIHERoCJemIjnsT3Y6KexB3At2cEGAFGgBFgBBgBRiBABJioBwhUpGRjoh4pPcntYAQYAUaAEWAEGIFIR8CRRD1lypR048YN+ueffxLcP/fccw/dvHkzJGUluDKJUAATdU+Q773vPho28j2iZMlk4udjx9D+vXuNjL0GDKD0Tz4lzzetW0ezpk8z0iIxkDlrVhr+wYeyaYcPHqSBvXtFYjMT1KauPXtSvgIFZRmD+r5Ov5w8maDy/F3cvE0bqlm3nsz2yUcf0urly/1d4pHeb8gQevSxtDJ+7apVNHfW10aeeo0bU4kyZeX52dOnafibg400DtgbgUh/XitVq0YNmzWXnYB377LFi8PaIbnz5aOBw96S91i7ehWNGTUqrPfjwhkBfwg4gqinTZuW8uTJQ+nSpaMUKVIIPuUiVCDY165do507d9JBQSgCkeTJk1PhwoUpffr09NBDD9Edd9whL7t16xZdvXqVjhw5Qtu3bw+kKEfmYaLu2W1PZ8pEC1auMhLef+dt+uKzz4zzzfv2U8pUqeT5gX17qUnNmkba3GXL6aHUqeX5yy81pyOHDhlpvgIzFiygx9M9IbP06fYKxW7a5Ct7oqaVLFuOxkycKO954fx5Klu4UKLe3wk3W7xmLaV/yjV469SqJW1cuzas1R47abIg0mXkPSZ+Mo4+Hjky3veLPXRYvj9x4Y7YWGrdqKFRxhezZxsDj+vXr1ORZ3MYaRywNwKR/ry+OWIE1a7fQHbCfPE7faNP77B2SJ2GjWjw8OHyHof276dGNaqH9X5cOCPgDwHbE/VqYjQNUu1PQLK//fZb+vvvv71mhfa8Vq1a9MADD3jNg4TPNJLmM6MDE5moe3ZaQoj6+l276f7bv6ch/f5Hc2bO9LyBRcyOo8eMQWKzOrVp3+7dFrmSJirSP/yhQDVYop5KDPg2iYEf5OqVK1Q8T+6AqsNEPSCYojJTpD+vwRL1YJ81JupR+RjZutG2J+p169alNGnSGCD++++/dPnyZWmuklpoMu+8804j7cKFCzRnzhzjXA/goW3YsCHdddddRjQ08n/88Qf9999/dJ8wf0AeCBN1A6KoCCSEqEOjnvmZZyROX06aSO8NG+YXs7vvvpu2HozTvOfP+gzdFKZcdpFI//CHAud5y1dQpixZZFFtmzSmbVu2BFQszKw27nGZVV376y96PtdzAV3HRD0gmKIyU6Q/r/2HDjVMX76ZPp2GDRwQUD8H+6wxUQ8IXs6UiAg4gqiDkB89epRixXQtTF2UwIylbNmylDlzZhVFa8UU9OHDh41zFSgjpo2zCttbJeuErfEhk5nCgw8+SDlz5qRNNjJDUPUN1ZE16p5IJoSofzD+UypXqZIsdM3KldStfTvPG5hicuXNS9PnzpOxdjQziPQPv6k7EvU0WPLARD1Ru8lRN+Pn1bq7gn3WmKhb48mxSYeA7Yk67NLPnTtH0KR7k+bNmxMWmEJOnDhBKwVh0gVa9BYtWhCIPWTp0qX0888/61miJsxE3bOrE0LUO3bvTp26vyoLhX16g2pVPW9gitE/BKd//ZWqlHjBlCNpT/nDHz78gyUPTNTD1ydOL5mfV+seDPZZ09/PbKNujS3HJi4CtifqgcBRrlw5ynJ7GvrSpUs0a9Yst8sKFixIBQoUkHEwm/n66zhvB24Zo+CEibpnJyeEqL9QujSNmzxFFnpeDCjLFSls3OC53Lkp2e3B4Y9iAHnlzz9lWs9+/ahFu/YyvG3zZmrbtIlxjQq079KVqtepIxacpqN7bns5Ov/773Rg3z7q1+M1ad+s8lodc+bKTe986PLcgoWqmC6uVb8+dX6th/D88Zi0j4fnpAuizp+OGU2YUlYSyIe/fOUq1K133KKuEUOH0IY1a1QRxhELLt8c/i7lFIvBMZjGYBkLt6+LtSS//vILxSxaKBfu/q3NlBkXBxnoO/hNKlaihLwaC89279gRUEnAG7hDvv16ptuCYgzGSpUvZ1nO66+8Qj//9JNl2mOPP04TvpxmLIBPLhavZ3j6aZkXOPz0ww8e1303by5NGDPGLd5M1BfPn0+vvv465c6XXy5mRl/i9/HO4EG0atkyt2vViR0Xk3404TMDD9QTOHbv4Ho2VL1DeZz89Sx6WJhSQvFTv2qVgIuG+UWRYsVl/gG9etLeXbvcro3W5zUczxreP51fcyk/3EAWJ9MnT6ZFc+eao+V5qJ41M1Fv2bAB9R8ylAo//zw9/oTLAcAlYTL7reARH41417IuHMkIhBKBiCDqFStWpIwZM0pczp49SwuERw1d6ogP8COPPCKjvJnG6PkjOcxE3bN3E0LU77v/ftqwe48sFO5CC+fILsNPPPkkLVm7zrjZ7BkzaGj/fvIc5KRMhQoyPGPqVBouyJUSrJOYNPNrejZXLhXlcYRtc+fWraTnDo/E2xGVq1enER+Plmcgg7CfHzDUu/183syZjKL8EfUXa9emt0a9b5DPndu2USvxMTNL7QYN6c13/X/IenftElKXax98Mp7KVa4sqxMfm9aJM2ZSoaJF5XXjP/qI4AZRydcLF1GO56ztyX15fcGACR5+4iNbNm6gDmKWUBedqMPzRVXheQgesKxk5LChNG3SJI8kOxJ1LKxVa4NQYTgFKJ7b+2/fo1HxjFi5ZSs98uij8ir8ZvHbDUQ27t1H9957r8z6YpnSdOr2jGy0P6/heNbg+lQNmM1948vrS6ieNZ2owz0t+v3JDBnMVZHn67//nrq0aW2ZxpGMQKgQiAii3qxZM+Nlv0Noz8zuFfX0qYIY4cF7RiwAfFpotvCxw4JSmNfsEloS2AxHsjBR9+zdhBB1lLb9yFFjUbMivC+1aUvwv67kmHD7Wa+KizzOWvQdZRdrISDwUb5AWwAN23XYsCuB5gakAC4gQf6Va1JoUEvmz+dVs64T9T8uXqQHxPoLZfoF7fUV4XHkQeGeVC2uVvXGfX0RdfjbHvjW20Y94Fe+Y8sWqrrGEQRmg1g0qe6JBdv79+whzDpAo59OeHJShAnuKZcuWmRcm9AAZg6GjHC5Lzwq1qsEqjldu2OnxAT3r12xAv1w/LhRFfhVLiVm7pQ8Itqg2uaLqEPL9/n0r9RlcoZF16j//OOPRpoKfDd/Hn368cfqVB51oq4SMDDE9SnE4mRVJtK8LVJlok40+vOJRj/CBStcsfoT/JaVpx59MI7rov15DcezVq1mLXqtb1+jWx4U7z4swIf4IuqhetZ0oq4qAccTp8ReCZgJhPMA5dYZ6TXFTJvVzJi6lo+MQEIRcDxRhw17daE9VAIXjeeF72dd2ojNQtSDBfv18uXL68lGGORnldgI5EeLj6eRyeEBJuqeHQhzhIpV42zLt27cSBeFByElmPJOneZheQoTlsMHDqgkeVy1NZbS3J6xqVqqJP166hSZiZW+aFTX6tUoW8Ywm3gmWzaaE7PUKNv8USpWsqQsV/2WMQXcv2cPI78e0Im6isemPK2E7+zfzpxRUVS1Rk16pVcvqla6lBHnjag3a92a+gx8w8i3ImYJ9ezc2TjXAy3bt6ce/3PNIEBLWrHY8x6DCmzU0rv/ABr93nvCpMflCUUvI9iwbpuKQUnR51yDIl/lwXsUBlwQmEUUyp7NV3YK1j2jXjdvhNrqxubfEwYgzWrXMhQL+G2M/2KqcanVLAXyYMAGwfUnxAJ9JfjtZRH/IZfEwG7zhg0qKazHxNao12/SRA400Si4RIVrVH+CZ2S4mGGB6AM/fl6J9N9zuJ61YN0z6nWLz7NmJup4fzWpWcMg4xgQLBT7bsAkEYINmPC8sTAC4ULA0UQdH9cm4sUL/+iQH8QU/4oVK9ywggayXbs4TxywC1VaSfhcR1iN1tWFcPEIV4+RKEzUQ9+rX82bT88JG2zIax1fljbCKzdvIWhddYH9OjTKcM2I3xx+i/myZDaywH62gNiMC3Lut9+o/PMuMwwjgwi81vd/1KpDBxmFgWUB4drRSsxE/YzYbbLyCy4bW6v8epwVUW/XuYsk9CqfeRCh4tURpjGw+YbARrxF/XoqKVGOun/7MoUKGgMvDKiyZs8u67BHbJT2lzAjguhtPnHsGNWpVFHGe/uTlEQd2r0S+fJ6DHxmL4kx2jZp/HhH2M8mNlHHQGXdTpd9udnMBgPHx8Qzi9kf3d3m2+9/QDD3gnw1ZQq9O+RNGebnVcJA4X7Wkpqoq3e6q7Wuv1BCQBkBgXlMwxeruRL4LyMQBgQcTdT1zZCgBZs2bZp8yeo4YdoSpi+6/CkW9cGOXX2kHxU2iy+++KJhBgCNPDTzkShM1EPfqzopxXbTn40dQzuPHZemETD3UCQeCzphM737hGsBoZkorI7dJhe6oYbjPvzAw/wB8fg9w15WDTZ1jTzSlZiJOmzarRZ7qvz6USet2Jl0zswZbjajZrt6/VoV7t6nD7Xp2EmeYkBRIm8e43lTecJ5nPjVDCokFn9BsDYAawQgn0z5goqXcs0eYMHm2PdHyXiYttRv2lSGsU35WwMHyrC3P0lJ1LGQsXld1yBIrx/MfWCKAHGKlg874D6ZwbW4FvU+KRaTvtKuLYJhE93evJjwY6++A7rpk27OsHDVaspwew1UywYNaNd2l107P6+uLgr3s5aURN3bLAHeIXiXQLwpVVzo8F9GIOEIOJaoFytWjHJpC+4WCRvX00JraBZo3VuLKXsl0GLCTh22hro8JbxTVKkS5wXgq6++kgub9DyREGaiHvpebC5Mq3oPcBE7mKPM/HIqTfvW5ZkANuiDhdcTmKvAG8cIoY2LWe8yK4AZTa0KcWZY2w4fMQaLvnYr1TVYViYOaKFO1KEhLJgta8AN14m6+SLYzJcqkN8c7XGeV3hZmjo7bvMxaIGhWV8rTMuWLf7OWIzncWGIItp07Ejd+7wuSwPu0IpBsNkQpsQh+roBXRvdrllTgqccX5KURB027P1ee82jel169KQOXbvKeJiuvPyS+4JUjwuiNOKLb76hfAULydb/79VXafGC+ZT64Yfp+23bDUT0zcvUc4nfcP5nshh5VDwiovl5DfezlpRE3dtMJNaELFz9vfwtXBae5rBeiIURCBcCjiTqecViuyJFihiYrBFu4Y6IxXreBKYvSgNpZR6jrmvVqpVBlGJiYuiksOmNNGGiHvoezZ0vn0HM4UViR+xWatvJZbuNLeKxeBReA/DSf/uNgfTxZ5/LSoC0Ku0hFiZCC68E12GLeSuJWbdeLsZEmtk7icqvE3UsJi1dsIBK8nv0RdRxMVykwR2jPzHbVev5MVDeuS1WuJrsITVSeloowrrXHfWxTSdcq6lBEu6hmw7p5kgwJwIp8yVJSdQnjf9EmLWM8Kjey926UedXXQQeAw0MOFg8EcBgBoMaiBr0mE27sDgQWnU8t999v0bmPS3ciVYpWUKG+XmVMMg/4X7WkpKoYz1Sw+ovxjX2dkh/l+A9jfc1CyMQLgQcR9SziQVPpYXvaiXYrRTeWnwJNOrQrEN85W8gpjUfEp4wIFu3bqXdYrFRpAkT9dD3qL4QEQs2f//9N8pXoKAk2niBK9MYkD8snIRZCAQmMjCVgcBmHWRRSX6QRWEyYiULxEImeKqBeCPNOlGHZ5Aa5cpaFWUZZybqmIWCBxR4O4DgvE3jRj7dQ6qCYU8Pn/Fqsa2KV0eYrOFDqC9sVGkJPSryrTShXYQP+Q7C5znuiT7D4B0mQdjUBAuCIYrU+7t3UhL1iZ+Mo49Hurza6PVkoq6j4T2sa0Phtx3mY3ChCfd+MIOBeRl+MwXFguKXxGyZWhQNzTs08BB+XuMWIgOPcD5rSUnUvW14xEQdvc6SWAg4iqhnzJiR4DNdyX7xgd0oPHT4E9094zrhTu6Q2EHSSmqLBUOwV4fsEbbFW7Zsscrm6Dgm6uHpPvWhgnYFmlosWoMtK2xasTnQ+598Im+MRWrKV/erL3eg1cuXGxVSdu2I0G1kjQy3A7ptrG5/refTibrSDurpvsI6UQcph2eXlUtjaMWmzfRo2rTyUnhRKFO4EMGGMxCBe8kyFSpK7zqFhdmavoBbN0EJpKxA8+huMBvVqE7D3hslF1tC2/yUeJdgMynYcuMcG9pAArXtZqIeaC/YM59yVanMwpQZywfD3xEbSfWVgziYldVt3MTYPMtsZsbPa1zfhvNZY6IehzOHohMBxxD19MLvclXhQk+ZsBwXGj64UgxE9A2PfBHwpmIxmdrUIlI3RrIzUcc0M1zI6bJcECmYbthdYFIBLQs0ccq/NjbMgWkKfPWDGEBADNTsDsxR9Lbp9tO+fIsrUoHysKjQvEsi4kNF1LGYtKwg5BBoIucLbb5qH7ymvFSvrkyLzx+4w/x4wgTpaQXXKbIUnzICyQs/9vBnD5kwejS1FQMOrBUYJHb0zCW89DQQi8yBP8yVyt5WACibZX/lM1H3h1Bg6fCmkla4u1Ny5tfT0mZcnYfrCDeocK8IQZ+rXXwxAzZj/gI5YwXTNCwEV7NB2MxMX9vEz2tc74TzWWOiHoczh6ITAUcQdbjMqil24lMkHbbjsCEPVHKKzWVeeOEFmR2bG30jFhOZBRu/tGzZ0rjHvHnzhAnD7+Zsjj+3M1HXX/YK6L7du9OShQvUqW2PuucDVck6lSsZJh1rtu+QmxapNN0+WsXp3iW8uTTUtfO4rsizOQxf2qocHMNB1FGuvnAW59BAThGkO75itvHVN1yKb1ne8utrB86JZxkbLGGGAJjBi4fyWY/BCLaVh8DneiCzBMESddxDef1RJjmI8ye6vX8kmb4ktntGhXPfwW9SkxYt5Kn6bfwudrWuIPz9YxEyFkj+efkyYedhfHes1nnw86rQJArnsxYsUUftgnnWdD/qbPoS18ccSjoEbE/UU4sp87p16xpavLPiZQrXivERaNFgp66I/jLhBeInYZuoC4g8CD0EH9ApU6ZIEwY9TySEmaiHpxf7DRlCjZq/ZBRu1hJ/+uU0ev72YBGZrD78TVu1otffGCTLAKGEtlrXlkMzD08DMNmAwG4cO2haSbiIOu4Fby7w6gLBs1KvahVjQCIjxZ9K1Vx+hWFKYiXQYH/4qYvgWw1arK4JJk43T8D1WEOgNnfaLLavTynskZUE6tEG+RNC1JXZBcqx8tGMeLMwUTcjkrBz7FcAP+i6zPtmlpxt0RdHqvSNa9cSdqDVhZ9XHQ0yXNKq2FA9awkh6sE8a0zUVQ/y0S4I2J6o6/blAA0+zkEOvMk1YTO7dOlSj+TKlStTBmHZEu1hAAAOBElEQVRaoeSAWM0NDzAwQ3j22Wfd0nYIN3Lbt8e56lLXRMKRiXp4elHfSht3MNuFwwQDMwZKvGlqdNeL+J1PmzRR+j/HrpFtXu7otolSq4YNpNmGKlM/hpOoY7Ed7OTVznwYdJQVmznpi1/HTZ5CL4hF37BlXymeR3jCwcYgWLBXsVpVKlikqLFbcLAmNHp7vYV1Qo08+oY1E8S+C0WLu2bakLZl4wbq0NzTpSHMsdRCWuSDdOr+Kt3/wAMyDIJ3xLTuZZ6YtfPmtUc3u0Afb16/XriKPCw0+X/L8mI3b6atm9zX3jBRl9CE9I95ENe0Vk3av9e1Q67+HOKmwwcPIuwfYBY9X7Q/r6F41rDpVLESLs86CuuadetRjueek6d4by74do5KksdN4vnxthg9mGeNibobvHxiAwRsT9R1l4mB4IWX5USxiYZZQMhr1apFDwt/ub4EmyF9/fXXcorcVz6nptmZqOuaE4VvoBpHlT+pjronCdRBaedUfWCHu2xjnG/umIUL6fXu3VSycSxXqRK9N3acQWKNBFNg+ZIl1KtLZ1Ns3Gk4iTrugtkBzBIoWbNyJXVr306dkiLqRoSXAGx+4Uv+11OnvORIWLTyuKNK0RfpYudUpCt5b9gwgv9ss2AWA/0bH2kv7N/NZFtdn13M3H29cJExw6fi1dFqwMBEXaETuqPu5vT69evSJEqV/tGEz8Ti57jZKn13W5UHR35e49AIxbM26J3hVLdRo7hCAwjNnfU1De7b1zJnMM8aE3VLKDkyCRGwPVGH3Tim/AMVTKNPmjTJMjtMX+A1Bpp1ZQajZ9y3bx9tFtosmB1EqtiZqJsJEVylYedAp8iu4yeM3xVIK8irLsozDOJ82XZjUe0UMS2vPKzoZcCkZvibg+UOp3q8Oazbsp84dozqVIrzlmTOaz7Xd907f+4clRPacisZPHw44aOmBBvsYKMdSL3GjaXW+RGxvsTqWUOeXTu208CePQku8sIlIFIfjP9UFm/eCRaDdyzMVfWrWLwY/XbmjEdVdHeYHoleIlo3aujTfSUGbr3EJlkgg+b32ybhmapjS5f9tCpeJ47efOfrvsCdsuGRviATbU1Mn9TvfvQxValRQ0K8Q7j5RZ8pKV2+vLHfAWaFnvfxHuLn1YVaKJ61AUOHyUXeqh8COc4WmxMOHdDfa9b4Pmv6AB47SzetXcuj7MfE87v8tuKFNzzygIcjQoyA7Yl6iNtrFAfb9yeElw6Qciwa9WdSY1zo8ICdibp5KtqbhtPhXRBw9eHiEWYXWKgFjfMGsbEXTGqcJHDDWESYl2TMlInSi91/L168QEeFmQg8rVy8cMFJTeG6MgI+EeDn1Sc8nMgIMAJBIhC1RD1IvBx/mV2JOgjp+C/ibEDhcaFEvryOx5sbwAgwAowAI8AIMAKMQLAIMFEPFjmHXmdXoj5kxEjCgkwl3jbyUel8ZAQYAUaAEWAEGAFGINIRYKIe6T1sap9dibq+sMvKdaGpGXzKCDACjAAjwAgwAoxAxCPARD3iu9i9gXYl6iNHj6GnhGeNW+IfdpFcvXy5e8X5jBFgBBgBRoARYAQYgShDgIl6lHW4XYl6lHUDN5cRYAQYAUaAEWAEGAG/CDBR9wtRZGVgoh5Z/cmtYQQYAUaAEWAEGIHIRYCJeuT2rWXLmKhbwsKRjAAjwAgwAowAI8AI2A4BJuq265LwVoiJenjx5dIZAUaAEWAEGAFGgBEIFQJM1EOFpEPKYaLukI7iajICjAAjwAgwAoxA1CPARD3KfgJM1KOsw7m5jAAjwAgwAowAI+BYBJioO7brgqs4E/XgcOOrGAFGgBFgBBgBRoARSGwEmKgnNuJJfD8m6kncAXx7RoARYAQYAUaAEWAEAkSAiXqAQEVKNibqkdKT3A5GgBFgBBgBRoARiHQEmKhHeg+b2sdE3QQInzICjAAjwAgwAowAI2BTBJio27RjwlUtJurhQpbLZQQYAUaAEWAEGAFGILQIMFEPLZ62L42Juu27iCvICDACjAAjwAgwAoyARICJepT9EJioR1mHc3MZAUaAEWAEGAFGwLEIMFF3bNcFV3Em6sHhxlcxAowAI8AIMAKMACOQ2AgwUU9sxJP4fnYk6l179qT2Xbp6IHPu99+pfNEiHvEcwQgwAowAI8AIMAKMQDQg4EiinjJlSrpx4wb9888/0dBHIW2jHYl6z379qEW79h7tvPTHH1SqQH6PeI5gBBgBRoARYAQYAUYgGhBwBFFPmzYt5cmTh9KlS0cpUqSgZMmSyb65efMmXbt2jXbu3EkHDx702l+NGzf2muYtYfHixXT58mVvyY6NtyNRz5w1K5WvVFlimuaRR6hJy5YyzETdsT8zrjgjwAgwAowAI8AIhAAB2xP1atWqUfr06f029erVq/Ttt9/S33//7ZY3efLk1LZtW7e4QE7mzp1L586dCySro/LYkajrAD6ZIQN99/0aGcVEXUeGw4wAI8AIMAKMACMQbQjYnqjXrVuX0qRJY/TLv//+KzXd0KanTp2a7rzzTiPtwoULNGfOHOMcAWjf27Rp4xZndQJCrwRmNZMmTVKnEXVkoh5R3cmNYQQYAUaAEWAEGIEIRsARRB2E/OjRoxQbGytNXVR/gFyXLVuWMmfOrKJo7dq1dPjwYeM80ICuuce9vv/++0AvdVQ+JuqO6i6uLCPACDACjAAjwAhEMQK2J+qwS4cJCjTp3qR58+aEBaaQEydO0MqVK71ltYyH3XuLFi0M2/fZs2fTxYsXLfM6PZKJutN7kOvPCDACjAAjwAgwAtGCgO2JeiAdUa5cOcqSJYvMeunSJZo1a1Yglxl58ufPT4UKFZLnV65coRkzZhhpkRZgoh5pPcrtYQQYAUaAEWAEGIFIRSAiiHrFihUpY8aMso/Onj1LCxYsiFd/NWvWjFKlSiWv2bp1K+3evTte1zspMxN1J/UW15URYAQYAUaAEWAEohmBiCDqOtHesWMHbd++PeA+feyxx6hWrVoy/61bt+iLL77waWYTcME2zchE3aYdw9ViBBgBRoARYAQYAUbAhIDjiTps2KtXr240Cy4az58/b5z7C1SuXJkyCJeAkNOnT9OiRYv8XeLodCbqju4+rjwjwAgwAowAI8AIRBECjibqcM3YpEkTuueee2SX/fDDD7RixYqAuw/Xt2rVylhEGhMTQydPngz4eidmZKLuxF7jOjMCjAAjwAgwAoxANCLgaKKuu1SEV5hp06bRf//9F3A/5sqVi4oVKybz4/opU6YEfK1TMzJRd2rPcb0ZAUaAEWAEGAFGINoQcCxRB8EG0VYCkxWYrsRHoI2/77775CUHDx6k9evXx+dyR+Zlou7IbuNKMwKMACPACDACjEAUIuBIop43b14qUqSI0V1r1qyhI0eOGOeBBB5++GGqV6+ekXXmzJn0559/GueRGmCiHqk9y+1iBBgBRoARYAQYgUhDwHFEPVu2bFS6dGmjH7Bb6a5du4zzQAPly5c3djQNxvd6oPexWz4m6nbrEa4PI8AIMAKMACPACDAC1gg4iqjDVzp8pivZv38/bdy4UZ0GfEyePDm1bt2acIRs2LCBDhw4EPD1Ts7IRN3Jvcd1ZwQYAUaAEWAEGIFoQsAxRD19+vRUtWpVw0PL8ePHadWqVUH1VY4cOahkyZLyWvhOnzx5Mt24cSOospx2ERN1p/UY15cRYAQYAUaAEWAEohUBRxB1bEpUs2ZNg6TDhSJcKQYrDRs2pAcffFBentCygq1DUl3HRD2pkOf7MgKMACPACDACjAAjED8EbE/UU6dOTXXr1jXMVM6ePUsLFiyIXyu13A888AA1atTIiAnGW4xxsQMDTNQd2GlcZUaAEWAEGAFGgBGISgRsT9SbNWtGqVKlMjoHu47evHnTODcHrl27RkuXLjVHG+elSpWi7Nmzy/Pr16/T1KlTjbRoCDBRj4Ze5jYyAowAI8AIMAKMQCQgYHuijp1D77rrroCxBomfOHGiZf5kyZLJRaR33HGHTN+7dy9t3rzZMm+kRjJRj9Se5XYxAowAI8AIMAKMQKQhYHui3rJlS0qRIkXAuGNR6KRJkyzzP/XUU1SlShUjbfr06fTXX38Z59EQYKIeDb3MbWQEGAFGgBFgBBiBSEDA9kQ9EkC2UxvsSNS79OhJHbp29YDp0h9/UKkC+T3iOYIRYAQYAUaAEWAEGIFoQICJejT0stZGOxL1nv36UYt27bVauoJM1D0g4QhGgBFgBBgBRoARiCIEmKhHUWejqXYk6s+I3WbLayZJqkt+EW44F82dq075yAgwAowAI8AIMAKMQFQhwEQ9qrrbnkQ9yrqAm8sIMAKMACPACDACjEBACDBRDwimyMlkR4165KDLLWEEGAFGgBFgBBgBRiB0CDBRDx2WjiiJibojuokryQgwAowAI8AIMAKMADFRj7IfARP1KOtwbi4jwAgwAowAI8AIOBYBJuqO7brgKs5EPTjc+CpGgBFgBBgBRoARYAQSGwEm6omNeBLfj4l6EncA354RYAQYAUaAEWAEGIEAEWCiHiBQkZKNiXqk9CS3gxFgBBgBRoARYAQiHQEm6pHew6b2MVE3AcKnjAAjwAgwAowAI8AI2BQBJuo27ZhwVYuJeriQ5XIZAUaAEWAEGAFGgBEILQJM1EOLJ5fGCDACjAAjwAgwAowAI8AIhAQBJuohgZELYQQYAUaAEWAEGAFGgBFgBEKLABP10OLJpTECjAAjwAgwAowAI8AIMAIhQYCJekhg5EIYAUaAEWAEGAFGgBFgBBiB0CLwf8vmI5YOqGtLAAAAAElFTkSuQmCC;" parent="1" vertex="1">
          <mxGeometry x="110" y="340" width="366" height="148.17" as="geometry" />
        </mxCell>
        <mxCell id="UxFwjM1PBD1FrdaTbrEC-4" value="interface name" style="shape=callout;whiteSpace=wrap;html=1;perimeter=calloutPerimeter;" vertex="1" parent="1">
          <mxGeometry x="220" y="270" width="90" height="80" as="geometry" />
        </mxCell>
        <mxCell id="UxFwjM1PBD1FrdaTbrEC-5" value="interface term" style="shape=callout;whiteSpace=wrap;html=1;perimeter=calloutPerimeter;" vertex="1" parent="1">
          <mxGeometry x="330" y="270" width="120" height="80" as="geometry" />
        </mxCell>
        <mxCell id="UxFwjM1PBD1FrdaTbrEC-6" value="field term" style="shape=callout;whiteSpace=wrap;html=1;perimeter=calloutPerimeter;flipV=1;flipH=1;" vertex="1" parent="1">
          <mxGeometry x="334" y="440" width="120" height="80" as="geometry" />
        </mxCell>
        <mxCell id="UxFwjM1PBD1FrdaTbrEC-7" value="field label" style="shape=callout;whiteSpace=wrap;html=1;perimeter=calloutPerimeter;flipV=1;flipH=1;" vertex="1" parent="1">
          <mxGeometry x="170" y="455" width="120" height="80" as="geometry" />
        </mxCell>
      </root>
    </mxGraphModel>
  </diagram>
</mxfile>
